<?xml version="1.0" encoding="utf-8"?>
<!-- Generator: Adobe Illustrator 18.1.1, SVG Export Plug-In . SVG Version: 6.00 Build 0)  -->
<svg version="1.1" id="Layer_1" xmlns="http://www.w3.org/2000/svg" xmlns:xlink="http://www.w3.org/1999/xlink" x="0px" y="0px"
	 viewBox="0 0 470 110" enable-background="new 0 0 470 110" xml:space="preserve">
<g>
	<g>
		<path fill="#FBAF29" d="M1,1.5h51.3l1,20.4h-1.8c-2.8-6.9-5.7-11.7-8.7-14.3c-3-2.6-7.5-3.9-13.3-3.9H26v31.8h3.4
			c3.1,0,5.7-1.2,7.8-3.7c2.1-2.4,3.6-5.7,4.4-9.8h1.5v30.5h-1.7c-1.2-5.1-2.8-8.8-4.8-11c-2-2.2-4.7-3.3-8.2-3.3H26v33h3.7
			c6,0,11.2-1.9,15.4-5.7c4.2-3.8,7.1-8.6,8.7-14.5h2l-0.8,22.4H1v-2.3h5.8V3.7H1V1.5z"/>
		<path fill="#FBAF29" d="M72.4,1.5h35.5v2.3H97.4v67.5h3.5c5.6,0,10-1.8,13.4-5.4c3.3-3.6,6.7-9.1,10.1-16.5h2.1l-1.9,24.1H72.4
			v-2.3h5.8V3.7h-5.8V1.5z"/>
		<path fill="#FBAF29" d="M170.2,35.3l14-32.2h-10V1.5h19.4v1.6h-6.5l-14.9,34.4v34.1h6v2H147v-2h6V39.4L136.2,3.1h-4.6V1.5h31.5
			v1.6h-6.4L170.2,35.3z"/>
		<path fill="#FBAF29" d="M229.7,72.4c3.3,0,6.2-0.9,8.7-2.8c2.5-1.9,3.8-4.6,3.8-8.4c0-3.7-1.4-6.6-4.1-8.6
			c-2.7-2-6.6-3.7-11.6-5.2c-5-1.5-8.7-2.8-10.9-3.9c-2.3-1.1-4.4-2.5-6.5-4.3c-4.1-3.6-6.1-9.1-6.1-16.6c0-6.1,2.1-11.4,6.3-15.7
			s9.9-6.6,17.1-6.6c3.5,0,7.1,0.5,10.9,1.6c3.8,1.1,6.1,1.6,7,1.6s1.7-0.7,2.5-2.1h1.1l0.7,20.8h-1.6c-3.2-6-6.5-10.8-9.9-14.4
			c-3.4-3.6-7.2-5.4-11.2-5.4c-4,0-7.2,1-9.4,2.9c-2.2,2-3.4,4.6-3.4,7.8s1.3,5.8,4,7.5c2.7,1.8,5.9,3.2,9.8,4.3
			c3.9,1.1,6.4,1.9,7.6,2.3s2.7,1,4.5,1.7c1.8,0.7,3.3,1.5,4.4,2.3c1.1,0.8,2.4,1.8,3.6,3c1.3,1.2,2.3,2.5,3,4
			c1.8,3.3,2.7,7.2,2.7,11.7c0,7.4-2.2,13.4-6.7,17.9c-4.4,4.5-10.3,6.7-17.5,6.7c-3.7,0-8-0.5-12.9-1.5c-4.8-1-7.5-1.5-8-1.5
			c-0.9,0-1.8,1-2.7,3.1h-1.4l-1-24.5h1.7c2.9,6,6.6,11.2,11.1,15.6C219.9,70.1,224.7,72.4,229.7,72.4z"/>
		<path fill="#FBAF29" d="M269.1,1.5h30.1v2h-5.4v68.1h5.4v2h-30.1v-2h5.4V3.4h-5.4V1.5z"/>
		<path fill="#FBAF29" d="M341.3,66.1c2.1,3.4,5.8,5,11.2,5c5.4,0,9.5-1.7,12.4-5.2c2.9-3.5,4.3-8.8,4.3-15.9V3.4h-6.4v-2h14.4v2
			h-5.4v45.8c0,8.5-1.8,14.9-5.4,19c-3.6,4.2-10,6.3-19.2,6.3s-16.2-2-21-6c-4.8-4-7.2-10.8-7.2-20.5V3.4h-5.4v-2h31.1v2h-6.4v48.2
			C338.2,57.9,339.3,62.7,341.3,66.1z"/>
		<path fill="#FBAF29" d="M442.7,1.5H469v2h-5.4v68.1h5.4v2h-30.1v-2h5.4V7.2H444l-14.8,66.3h-12.3L399.5,6.9h-0.4v64.6h5.4v2h-13.4
			v-2h5.4V3.4h-5.4v-2h26.6l13.1,53L442.7,1.5z"/>
	</g>
	<g>
		<path fill="#FBAF29" d="M6.7,105.2h7.1v4.2H1.2V87.1h5.4V105.2z"/>
		<path fill="#FBAF29" d="M32,87.1v13.4c0,1.3,0.3,2.4,1,3.1c0.7,0.7,1.6,1.1,2.9,1.1c1.3,0,2.2-0.4,2.9-1.1c0.7-0.7,1-1.8,1-3.1
			V87.1h5.4v13.3c0,2-0.4,3.7-1.3,5.1c-0.8,1.4-2,2.4-3.4,3.1c-1.4,0.7-3,1.1-4.8,1.1c-1.8,0-3.3-0.3-4.7-1
			c-1.4-0.7-2.5-1.7-3.3-3.1c-0.8-1.4-1.2-3.1-1.2-5.1V87.1H32z"/>
		<path fill="#FBAF29" d="M73,109.5l-4.6-6.8l-4,6.8h-6.2l7.2-11.4l-7.3-11h6.3l4.5,6.8l3.9-6.8H79l-7.1,11.3l7.4,11.1H73z"/>
		<path fill="#FBAF29" d="M97.6,87.1v13.4c0,1.3,0.3,2.4,1,3.1c0.7,0.7,1.6,1.1,2.9,1.1c1.3,0,2.2-0.4,2.9-1.1c0.7-0.7,1-1.8,1-3.1
			V87.1h5.4v13.3c0,2-0.4,3.7-1.3,5.1c-0.8,1.4-2,2.4-3.4,3.1c-1.4,0.7-3,1.1-4.8,1.1c-1.8,0-3.3-0.3-4.7-1
			c-1.4-0.7-2.5-1.7-3.3-3.1c-0.8-1.4-1.2-3.1-1.2-5.1V87.1H97.6z"/>
		<path fill="#FBAF29" d="M136.3,109.5l-4.7-8.4h-1.3v8.4h-5.4V87.1h9.1c1.8,0,3.3,0.3,4.5,0.9c1.2,0.6,2.2,1.5,2.8,2.5
			c0.6,1.1,0.9,2.3,0.9,3.6c0,1.5-0.4,2.8-1.3,4c-0.8,1.2-2.1,2-3.7,2.5l5.2,8.9H136.3z M130.3,97.2h3.4c1,0,1.7-0.2,2.2-0.7
			c0.5-0.5,0.7-1.2,0.7-2.1c0-0.8-0.2-1.5-0.7-2c-0.5-0.5-1.2-0.7-2.2-0.7h-3.4V97.2z"/>
		<path fill="#FBAF29" d="M175,87.1l-7.7,15v7.4h-5.4v-7.4l-7.7-15h6.2l4.3,9.4l4.3-9.4H175z"/>
		<path fill="#FBAF29" d="M204.9,92.3c1-1.7,2.3-3.1,4-4c1.7-1,3.6-1.4,5.8-1.4c2.7,0,4.9,0.7,6.8,2.1s3.2,3.3,3.8,5.7h-6
			c-0.4-0.9-1.1-1.6-1.9-2.1c-0.8-0.5-1.7-0.7-2.8-0.7c-1.7,0-3,0.6-4.1,1.8c-1,1.2-1.6,2.7-1.6,4.7c0,2,0.5,3.5,1.6,4.7
			c1,1.2,2.4,1.8,4.1,1.8c1,0,2-0.2,2.8-0.7c0.8-0.5,1.4-1.2,1.9-2.1h6c-0.6,2.4-1.9,4.3-3.8,5.7c-1.9,1.4-4.2,2.1-6.8,2.1
			c-2.2,0-4.1-0.5-5.8-1.4c-1.7-1-3-2.3-4-4c-1-1.7-1.4-3.7-1.4-5.9S203.9,94.1,204.9,92.3z"/>
		<path fill="#FBAF29" d="M243.6,108.2c-1.8-1-3.1-2.3-4.2-4.1c-1-1.8-1.5-3.7-1.5-5.9c0-2.2,0.5-4.2,1.5-5.9c1-1.7,2.4-3.1,4.2-4.1
			c1.8-1,3.7-1.5,5.8-1.5c2.1,0,4,0.5,5.8,1.5c1.8,1,3.1,2.3,4.1,4.1c1,1.7,1.5,3.7,1.5,5.9c0,2.2-0.5,4.2-1.5,5.9s-2.4,3.1-4.1,4.1
			c-1.7,1-3.7,1.5-5.8,1.5C247.3,109.7,245.4,109.2,243.6,108.2z M253.7,102.9c1.1-1.2,1.6-2.8,1.6-4.7c0-2-0.5-3.6-1.6-4.7
			s-2.5-1.8-4.3-1.8c-1.8,0-3.2,0.6-4.3,1.8c-1.1,1.2-1.6,2.8-1.6,4.7c0,2,0.5,3.6,1.6,4.7c1.1,1.2,2.5,1.8,4.3,1.8
			C251.2,104.7,252.6,104.1,253.7,102.9z"/>
		<path fill="#FBAF29" d="M294,109.5h-5.4l-9.1-13.8v13.8H274V87.1h5.4l9.1,13.9V87.1h5.4V109.5z"/>
		<path fill="#FBAF29" d="M308.7,92.3c1-1.7,2.3-3.1,4-4c1.7-1,3.6-1.4,5.8-1.4c2.7,0,4.9,0.7,6.8,2.1s3.2,3.3,3.8,5.7h-6
			c-0.4-0.9-1.1-1.6-1.9-2.1c-0.8-0.5-1.7-0.7-2.8-0.7c-1.7,0-3,0.6-4.1,1.8s-1.6,2.7-1.6,4.7c0,2,0.5,3.5,1.6,4.7s2.4,1.8,4.1,1.8
			c1,0,2-0.2,2.8-0.7c0.8-0.5,1.4-1.2,1.9-2.1h6c-0.6,2.4-1.9,4.3-3.8,5.7c-1.9,1.4-4.2,2.1-6.8,2.1c-2.2,0-4.1-0.5-5.8-1.4
			c-1.7-1-3-2.3-4-4c-1-1.7-1.4-3.7-1.4-5.9S307.7,94.1,308.7,92.3z"/>
		<path fill="#FBAF29" d="M348.1,87.1v22.4h-5.4V87.1H348.1z"/>
		<path fill="#FBAF29" d="M367.7,91.5V96h7.3v4.2h-7.3v4.9h8.3v4.4h-13.7V87.1h13.7v4.4H367.7z"/>
		<path fill="#FBAF29" d="M401.1,109.5l-4.7-8.4h-1.3v8.4h-5.4V87.1h9.1c1.8,0,3.3,0.3,4.5,0.9c1.2,0.6,2.2,1.5,2.8,2.5
			c0.6,1.1,0.9,2.3,0.9,3.6c0,1.5-0.4,2.8-1.3,4c-0.8,1.2-2.1,2-3.7,2.5l5.2,8.9H401.1z M395.1,97.2h3.4c1,0,1.7-0.2,2.2-0.7
			c0.5-0.5,0.7-1.2,0.7-2.1c0-0.8-0.2-1.5-0.7-2c-0.5-0.5-1.2-0.7-2.2-0.7h-3.4V97.2z"/>
		<path fill="#FBAF29" d="M435.5,94.2c-0.4-0.7-1-1.3-1.7-1.7c-0.8-0.4-1.6-0.6-2.7-0.6c-1.8,0-3.2,0.6-4.2,1.7
			c-1.1,1.2-1.6,2.7-1.6,4.6c0,2.1,0.6,3.7,1.7,4.8c1.1,1.2,2.6,1.7,4.6,1.7c1.3,0,2.5-0.3,3.4-1c0.9-0.7,1.6-1.7,2-2.9H430v-4h11.8
			v5.1c-0.4,1.4-1.1,2.6-2.1,3.8c-1,1.2-2.2,2.1-3.7,2.8c-1.5,0.7-3.2,1.1-5,1.1c-2.2,0-4.2-0.5-5.9-1.4c-1.7-1-3.1-2.3-4-4
			c-1-1.7-1.5-3.7-1.5-5.9s0.5-4.2,1.5-5.9c1-1.7,2.3-3.1,4-4c1.7-1,3.7-1.4,5.9-1.4c2.7,0,4.9,0.6,6.8,1.9c1.8,1.3,3.1,3.1,3.6,5.4
			H435.5z"/>
		<path fill="#FBAF29" d="M460.5,91.5V96h7.3v4.2h-7.3v4.9h8.3v4.4h-13.7V87.1h13.7v4.4H460.5z"/>
	</g>
</g>
</svg>
