<?xml version="1.0" encoding="utf-8"?>
<!-- Generator: Adobe Illustrator 18.1.1, SVG Export Plug-In . SVG Version: 6.00 Build 0)  -->
<svg version="1.1" id="Layer_1" xmlns="http://www.w3.org/2000/svg" xmlns:xlink="http://www.w3.org/1999/xlink" x="0px" y="0px"
	 viewBox="0 0 440 320" enable-background="new 0 0 440 320" xml:space="preserve">
<g>
	<g>
		<path fill="none" stroke="#FBAF29" stroke-width="4" stroke-linecap="round" stroke-linejoin="round" stroke-miterlimit="10" d="
			M268.5,182.2c-3.6-34.9,3.8-72.5,28.6-98.7c0.4-0.4,0.9,0,0.7,0.5c-15.2,32.7-16.6,65.9-15.4,86.9c0.2,4.2,0.7,8.4,1.3,12.5"/>
		
			<line fill="none" stroke="#FBAF29" stroke-width="4" stroke-linecap="round" stroke-linejoin="round" stroke-miterlimit="10" x1="279.9" y1="108.6" x2="289.2" y2="106"/>
		
			<line fill="none" stroke="#FBAF29" stroke-width="4" stroke-linecap="round" stroke-linejoin="round" stroke-miterlimit="10" x1="274.6" y1="125.5" x2="283.9" y2="122.9"/>
		
			<line fill="none" stroke="#FBAF29" stroke-width="4" stroke-linecap="round" stroke-linejoin="round" stroke-miterlimit="10" x1="270.4" y1="140.2" x2="283.4" y2="136.6"/>
		
			<line fill="none" stroke="#FBAF29" stroke-width="4" stroke-linecap="round" stroke-linejoin="round" stroke-miterlimit="10" x1="268.5" y1="156.3" x2="281.5" y2="152.7"/>
		
			<line fill="none" stroke="#FBAF29" stroke-width="4" stroke-linecap="round" stroke-linejoin="round" stroke-miterlimit="10" x1="269.2" y1="172.4" x2="282.3" y2="168.7"/>
		
			<line fill="none" stroke="#FBAF29" stroke-width="4" stroke-linecap="round" stroke-linejoin="round" stroke-miterlimit="10" x1="280.1" y1="182.4" x2="282.7" y2="181.7"/>
	</g>
	<g>
		<g>
			<g>
				
					<path fill="none" stroke="#FBAF29" stroke-width="4" stroke-linecap="round" stroke-linejoin="round" stroke-miterlimit="10" d="
					M296.2,84.9c-25.7-2.2-43.9,7.2-50.9,34.2"/>
				
					<path fill="none" stroke="#FBAF29" stroke-width="4" stroke-linecap="round" stroke-linejoin="round" stroke-miterlimit="10" d="
					M277.4,85.7c0,0-17.1,4.8-19.6,26.2"/>
				
					<path fill="none" stroke="#FBAF29" stroke-width="4" stroke-linecap="round" stroke-linejoin="round" stroke-miterlimit="10" d="
					M288.4,84.6c0,0-14.1-0.8-18.3,20"/>
			</g>
			<g>
				
					<path fill="none" stroke="#FBAF29" stroke-width="4" stroke-linecap="round" stroke-linejoin="round" stroke-miterlimit="10" d="
					M241.8,69.3c14.8-6.5,27.7-5,39.4,2.7c0,0,0,0,0,0c2.7,1.8,5.4,3.9,7.9,6.4c2,1.9,4,4,5.9,6.3"/>
				
					<path fill="none" stroke="#FBAF29" stroke-width="4" stroke-linecap="round" stroke-linejoin="round" stroke-miterlimit="10" d="
					M281.2,72c0,0-15.5-8.7-32.4,4.6"/>
				
					<path fill="none" stroke="#FBAF29" stroke-width="4" stroke-linecap="round" stroke-linejoin="round" stroke-miterlimit="10" d="
					M289.8,79c0,0-9.4-10.5-27.1,1.2"/>
			</g>
			<g>
				
					<path fill="none" stroke="#FBAF29" stroke-width="4" stroke-linecap="round" stroke-linejoin="round" stroke-miterlimit="10" d="
					M265.6,39.1c15.4,4.5,24.3,13.9,28.3,27.2c1,3.2,1.6,6.5,2,10.1c0,0.1,0,0.1,0,0.2c0,0.2,0,0.4,0.1,0.6c0.2,2.3,0.4,4.7,0.4,7.2
					c0,0.2,0,0.4,0,0.5"/>
				
					<path fill="none" stroke="#FBAF29" stroke-width="4" stroke-linecap="round" stroke-linejoin="round" stroke-miterlimit="10" d="
					M293.9,66.4c0,0-6.3-16.7-27.8-17.2"/>
				
					<path fill="none" stroke="#FBAF29" stroke-width="4" stroke-linecap="round" stroke-linejoin="round" stroke-miterlimit="10" d="
					M295.9,77.2c0,0-0.5-14.1-21.6-16.4"/>
			</g>
		</g>
		<g>
			<g>
				
					<path fill="none" stroke="#FBAF29" stroke-width="4" stroke-linecap="round" stroke-linejoin="round" stroke-miterlimit="10" d="
					M297.3,84.5c21.6,14.1,30.1,32.8,19,58.3"/>
				
					<path fill="none" stroke="#FBAF29" stroke-width="4" stroke-linecap="round" stroke-linejoin="round" stroke-miterlimit="10" d="
					M311.6,96.7c0,0,10.5,14.4-0.7,32.7"/>
				
					<path fill="none" stroke="#FBAF29" stroke-width="4" stroke-linecap="round" stroke-linejoin="round" stroke-miterlimit="10" d="
					M303.6,89.1c0,0,11.6,8.1,2.1,27"/>
			</g>
			<g>
				
					<path fill="none" stroke="#FBAF29" stroke-width="4" stroke-linecap="round" stroke-linejoin="round" stroke-miterlimit="10" d="
					M348.8,104.1c-7.6-13-18.4-19.4-31.7-20.4c-3.2-0.3-6.7-0.2-10.2,0.2c0,0,0,0,0,0c-0.3,0-0.6,0.1-0.8,0.1
					c-2.5,0.3-5,0.7-7.6,1.2"/>
				
					<path fill="none" stroke="#FBAF29" stroke-width="4" stroke-linecap="round" stroke-linejoin="round" stroke-miterlimit="10" d="
					M339.7,107.3c-0.2-0.9-0.5-1.8-0.7-2.6c-0.7-2.1-1.5-4-2.4-5.7c-0.7-1.3-1.4-2.5-2.2-3.6c-7.1-10.1-17.3-11.6-17.3-11.6"/>
				
					<path fill="none" stroke="#FBAF29" stroke-width="4" stroke-linecap="round" stroke-linejoin="round" stroke-miterlimit="10" d="
					M326.6,101.5c-0.4-1.1-0.7-2.1-1.2-3.1c-0.9-2.3-2-4.2-3.1-5.8c-5.8-8.5-13-9-15.5-8.9c0,0,0,0,0,0c-0.5,0-0.8,0.1-0.8,0.1"/>
			</g>
			<g>
				
					<path fill="none" stroke="#FBAF29" stroke-width="4" stroke-linecap="round" stroke-linejoin="round" stroke-miterlimit="10" d="
					M297.2,84.5c15.9-20.3,35.3-27.1,59.8-13.7"/>
				
					<path fill="none" stroke="#FBAF29" stroke-width="5" stroke-linecap="round" stroke-linejoin="round" stroke-miterlimit="10" d="
					M397.2,70.3c3.4,10.5-6.1,20.1-16.6,16.6c-3.8-1.2-6.8-4.2-8-8c-3.4-10.5,6.1-20.1,16.6-16.6C393,63.6,396,66.6,397.2,70.3z"/>
				
					<path fill="none" stroke="#FBAF29" stroke-width="4" stroke-linecap="round" stroke-linejoin="round" stroke-miterlimit="10" d="
					M310.6,71.4c0,0,15.3-9.2,32.5,3.6"/>
				
					<path fill="none" stroke="#FBAF29" stroke-width="4" stroke-linecap="round" stroke-linejoin="round" stroke-miterlimit="10" d="
					M302.3,78.6c0,0,9.1-10.8,27.1,0.4"/>
			</g>
		</g>
	</g>
	<g>
		<path fill="none" stroke="#FBAF29" stroke-width="4" stroke-linecap="round" stroke-linejoin="round" stroke-miterlimit="10" d="
			M311.8,191.4c4.1-29.5,18-59.1,44-75.2c0.4-0.2,0.7,0.2,0.5,0.5c-19,22.8-27.1,49-30.6,66.1c-0.6,2.8-1.1,5.7-1.4,8.6"/>
		
			<line fill="none" stroke="#FBAF29" stroke-width="4" stroke-linecap="round" stroke-linejoin="round" stroke-miterlimit="10" x1="336.8" y1="132.6" x2="344.8" y2="132.4"/>
		
			<line fill="none" stroke="#FBAF29" stroke-width="4" stroke-linecap="round" stroke-linejoin="round" stroke-miterlimit="10" x1="329.1" y1="144.9" x2="337" y2="144.8"/>
		
			<line fill="none" stroke="#FBAF29" stroke-width="4" stroke-linecap="round" stroke-linejoin="round" stroke-miterlimit="10" x1="322.5" y1="155.8" x2="333.7" y2="155.6"/>
		
			<line fill="none" stroke="#FBAF29" stroke-width="4" stroke-linecap="round" stroke-linejoin="round" stroke-miterlimit="10" x1="317.7" y1="168.2" x2="328.8" y2="168"/>
		
			<line fill="none" stroke="#FBAF29" stroke-width="4" stroke-linecap="round" stroke-linejoin="round" stroke-miterlimit="10" x1="314.9" y1="181.2" x2="326" y2="181"/>
		
			<line fill="none" stroke="#FBAF29" stroke-width="4" stroke-linecap="round" stroke-linejoin="round" stroke-miterlimit="10" x1="312.4" y1="191.6" x2="323.6" y2="191.4"/>
	</g>
	<g>
		<g>
			<g>
				
					<path fill="none" stroke="#FBAF29" stroke-width="4" stroke-linecap="round" stroke-linejoin="round" stroke-miterlimit="10" d="
					M354.8,117.1c-6-8.3-24.6-10.8-34-5.5"/>
				
					<path fill="none" stroke="#FBAF29" stroke-width="4" stroke-linecap="round" stroke-linejoin="round" stroke-miterlimit="10" d="
					M347.7,111.8c0,0-11.1-3.6-18.8,12.1"/>
			</g>
			<g>
				
					<path fill="none" stroke="#FBAF29" stroke-width="4" stroke-linecap="round" stroke-linejoin="round" stroke-miterlimit="10" d="
					M343.1,75c11.1,8.4,13.4,15.3,13.8,26.8c0.1,2.7-0.1,5.5-0.5,8.5c0,0,0,0.1,0,0.1c0,0.2-0.1,0.3-0.1,0.5
					c-0.3,1.9-0.7,3.8-1.2,5.8c0,0.1-0.1,0.3-0.1,0.4"/>
				
					<path fill="none" stroke="#FBAF29" stroke-width="4" stroke-linecap="round" stroke-linejoin="round" stroke-miterlimit="10" d="
					M356.9,101.8c0,0-1.5-14.6-18.6-19.6"/>
			</g>
		</g>
		<g>
			<g>
				
					<path fill="none" stroke="#FBAF29" stroke-width="4" stroke-linecap="round" stroke-linejoin="round" stroke-miterlimit="10" d="
					M355.8,117c14.3,15.8,17.1,32.5,2.8,50.5"/>
				
					<path fill="none" stroke="#FBAF29" stroke-width="4" stroke-linecap="round" stroke-linejoin="round" stroke-miterlimit="10" d="
					M364.6,129.8c0,0,5.4,13.7-7.5,25.9"/>
				
					<path fill="none" stroke="#FBAF29" stroke-width="4" stroke-linecap="round" stroke-linejoin="round" stroke-miterlimit="10" d="
					M359.9,122c0,0,7.5,8.9-4.1,22"/>
			</g>
			<g>
				
					<path fill="none" stroke="#FBAF29" stroke-width="4" stroke-linecap="round" stroke-linejoin="round" stroke-miterlimit="10" d="
					M356.5,117.7c18.6,1,31.5,8.6,36.2,25.8"/>
				
					<path fill="none" stroke="#FBAF29" stroke-width="4" stroke-linecap="round" stroke-linejoin="round" stroke-miterlimit="10" d="
					M371.7,120.5c0,0,13.5,5.9,13.1,23.6"/>
				
					<path fill="none" stroke="#FBAF29" stroke-width="4" stroke-linecap="round" stroke-linejoin="round" stroke-miterlimit="10" d="
					M362.9,118.3c0,0,11.6,0.9,12.7,18.4"/>
			</g>
			<g>
				
					<path fill="none" stroke="#FBAF29" stroke-width="4" stroke-linecap="round" stroke-linejoin="round" stroke-miterlimit="10" d="
					M355.7,117c17-12.8,33.9-14.1,50.6,1.7"/>
				
					<path fill="none" stroke="#FBAF29" stroke-width="4" stroke-linecap="round" stroke-linejoin="round" stroke-miterlimit="10" d="
					M369.2,109.3c0,0,14.1-4.1,25.2,9.8"/>
				
					<path fill="none" stroke="#FBAF29" stroke-width="4" stroke-linecap="round" stroke-linejoin="round" stroke-miterlimit="10" d="
					M361,113.4c0,0,9.5-6.7,21.6,6"/>
			</g>
		</g>
	</g>
	<path fill="none" stroke="#FBAF29" stroke-width="5" stroke-linecap="round" stroke-linejoin="round" stroke-miterlimit="10" d="
		M231.3,197.9c1.6-1.2,3.3-2.4,5.1-3.5c11.4-7.3,25-11.5,39.6-11.5c15.1,0,29.2,4.5,41,12.3c4.7,3.1,9.1,6.8,13,10.9
		c3.4,3.6,6.5,7.6,9.2,11.9c1.8,2.9,3.5,6,4.9,9.2"/>
	<path fill="none" stroke="#FBAF29" stroke-width="5" stroke-linecap="round" stroke-linejoin="round" stroke-miterlimit="10" d="
		M231.3,219.8c1.6-1.9,3.3-3.7,5.1-5.3c4-3.7,8.5-6.9,13.4-9.3c7.9-4,16.8-6.2,26.2-6.2c10.1,0,19.7,2.6,28,7.2
		c4.8,2.6,9.1,5.9,12.9,9.7c3.5,3.4,6.5,7.2,9,11.4"/>
	<path fill="none" stroke="#FBAF29" stroke-width="5" stroke-linecap="round" stroke-linejoin="round" stroke-miterlimit="10" d="
		M307.5,227.2c-3.6-3.8-7.9-6.9-12.7-9.2c-5.7-2.8-12.1-4.3-18.8-4.3c-5.9,0-11.6,1.2-16.8,3.3c-5,2.1-9.5,5.1-13.4,8.8
		c-0.5,0.4-0.9,0.9-1.3,1.3"/>
	<g>
		<path fill="none" stroke="#FBAF29" stroke-width="5" stroke-linecap="round" stroke-linejoin="round" stroke-miterlimit="10" d="
			M420,184.4c-8.5,1.7-16.5,4.9-23.7,9.2c-5,3-9.6,6.7-13.8,10.8c-3.6,3.6-6.9,7.6-9.7,11.9c-2.3,3.4-4.2,7.1-5.9,10.9"/>
		<path fill="none" stroke="#FBAF29" stroke-width="5" stroke-linecap="round" stroke-linejoin="round" stroke-miterlimit="10" d="
			M384.9,227.2c0.5-0.9,1.1-1.8,1.7-2.7c2.8-4.1,6-7.8,9.7-11.1c4.1-3.6,8.8-6.7,13.8-9c3.1-1.5,6.4-2.7,9.9-3.6"/>
		<path fill="none" stroke="#FBAF29" stroke-width="5" stroke-linecap="round" stroke-linejoin="round" stroke-miterlimit="10" d="
			M403.3,227.2c0.9-0.9,1.8-1.8,2.8-2.7c4-3.5,8.7-6.3,13.8-8.2c0,0,0.1,0,0.1,0"/>
	</g>
	<g>
		<path fill="none" stroke="#FBAF29" stroke-width="5" stroke-linecap="round" stroke-linejoin="round" stroke-miterlimit="10" d="
			M236.4,194.4c-1.6-1-3.3-2-5.1-2.9"/>
	</g>
	<g>
		<path fill="none" stroke="#FBAF29" stroke-width="5" stroke-linecap="round" stroke-linejoin="round" stroke-miterlimit="10" d="
			M316.9,195.2c11.7-7.8,25.8-12.3,40.9-12.3c14.1,0,27.2,3.9,38.5,10.7"/>
		<path fill="none" stroke="#FBAF29" stroke-width="5" stroke-linecap="round" stroke-linejoin="round" stroke-miterlimit="10" d="
			M329.9,206.1c8.3-4.6,17.8-7.2,28-7.2c8.8,0,17.2,2,24.7,5.5"/>
		<path fill="none" stroke="#FBAF29" stroke-width="5" stroke-linecap="round" stroke-linejoin="round" stroke-miterlimit="10" d="
			M339.1,218c5.7-2.8,12.1-4.3,18.8-4.3c5.2,0,10.3,0.9,14.9,2.6"/>
	</g>
	<path fill="none" stroke="#FBAF29" stroke-width="5" stroke-linecap="round" stroke-linejoin="round" stroke-miterlimit="10" d="
		M420,227.5H231.3V105.7c0-50.5,41-91.5,91.5-91.5h5.6c50.5,0,91.5,41,91.5,91.5V227.5z"/>
</g>
<g>
	<path fill="#FBAF29" d="M20,243.4h43.8l0.8,17.4h-1.5c-2.4-5.9-4.8-10-7.4-12.2c-2.6-2.2-6.4-3.3-11.4-3.3h-2.9v27.2h2.9
		c2.6,0,4.9-1,6.7-3.1c1.8-2.1,3.1-4.9,3.8-8.4H56v26h-1.4c-1-4.4-2.4-7.5-4.1-9.4c-1.7-1.9-4.1-2.8-7-2.8h-2V303h3.2
		c5.2,0,9.6-1.6,13.2-4.8c3.6-3.2,6.1-7.4,7.5-12.4h1.7L66.3,305H20V303h5v-57.7h-5V243.4z"/>
	<path fill="#FBAF29" d="M81,243.4h30.3v1.9h-8.9V303h3c4.8,0,8.6-1.5,11.4-4.6c2.8-3,5.7-7.7,8.6-14.1h1.8l-1.6,20.6H81V303h5
		v-57.7h-5V243.4z"/>
	<path fill="#FBAF29" d="M164.6,272.3l12-27.5H168v-1.4h16.6v1.4h-5.6l-12.7,29.4v29.1h5.1v1.7h-26.7v-1.7h5.1v-27.4l-14.3-31h-4
		v-1.4h27v1.4h-5.5L164.6,272.3z"/>
	<path fill="#FBAF29" d="M215.5,304c2.8,0,5.3-0.8,7.5-2.4s3.2-4,3.2-7.2s-1.2-5.6-3.5-7.3c-2.3-1.7-5.6-3.2-9.9-4.4
		c-4.3-1.3-7.4-2.4-9.4-3.3c-1.9-0.9-3.8-2.2-5.5-3.7c-3.5-3-5.2-7.8-5.2-14.2c0-5.2,1.8-9.7,5.3-13.5c3.6-3.8,8.4-5.6,14.6-5.6
		c3,0,6.1,0.5,9.3,1.4c3.2,0.9,5.2,1.4,6,1.4c0.8,0,1.5-0.6,2.1-1.8h0.9l0.6,17.8h-1.3c-2.7-5.1-5.5-9.2-8.5-12.3
		c-2.9-3.1-6.1-4.6-9.6-4.6s-6.1,0.8-8,2.5c-1.9,1.7-2.9,3.9-2.9,6.7c0,2.8,1.1,4.9,3.4,6.4c2.3,1.5,5.1,2.7,8.4,3.7
		c3.3,0.9,5.5,1.6,6.5,1.9s2.3,0.8,3.9,1.5c1.5,0.6,2.8,1.3,3.8,1.9c1,0.7,2,1.5,3.1,2.6c1.1,1,2,2.2,2.6,3.4
		c1.5,2.8,2.3,6.2,2.3,10c0,6.3-1.9,11.4-5.7,15.3c-3.8,3.8-8.8,5.8-15,5.8c-3.2,0-6.9-0.4-11-1.3c-4.1-0.9-6.4-1.3-6.9-1.3
		c-0.8,0-1.5,0.9-2.3,2.6h-1.2l-0.8-20.9h1.4c2.5,5.1,5.6,9.6,9.5,13.4C207.1,302.1,211.2,304,215.5,304z"/>
	<path fill="#FBAF29" d="M249.1,243.4h25.7v1.7h-4.6v58.2h4.6v1.7h-25.7v-1.7h4.6v-58.2h-4.6V243.4z"/>
	<path fill="#FBAF29" d="M310.9,298.6c1.8,2.9,5,4.3,9.6,4.3s8.1-1.5,10.6-4.5c2.5-3,3.7-7.5,3.7-13.6v-39.8h-5.5v-1.7h12.3v1.7
		h-4.6v39.1c0,7.3-1.5,12.7-4.6,16.3c-3.1,3.6-8.6,5.4-16.4,5.4c-7.8,0-13.8-1.7-17.9-5.1c-4.1-3.4-6.2-9.2-6.2-17.5v-38.2h-4.6
		v-1.7h26.5v1.7h-5.5v41.2C308.2,291.6,309.1,295.8,310.9,298.6z"/>
	<path fill="#FBAF29" d="M397.5,243.4H420v1.7h-4.6v58.2h4.6v1.7h-25.7v-1.7h4.6v-55h-0.3L386,305h-10.5L360.6,248h-0.3v55.2h4.6
		v1.7h-11.5v-1.7h4.6v-58.2h-4.6v-1.7h22.7l11.2,45.3L397.5,243.4z"/>
</g>
<g>
	<path fill="#FBAF29" d="M24.5,228h2.9v1.7h-5.1v-9h2.2V228z"/>
	<path fill="#FBAF29" d="M34.7,220.6v5.4c0,0.5,0.1,1,0.4,1.2c0.3,0.3,0.7,0.4,1.2,0.4c0.5,0,0.9-0.1,1.2-0.4
		c0.3-0.3,0.4-0.7,0.4-1.2v-5.4h2.2v5.4c0,0.8-0.2,1.5-0.5,2c-0.3,0.6-0.8,1-1.4,1.3s-1.2,0.4-1.9,0.4c-0.7,0-1.3-0.1-1.9-0.4
		c-0.6-0.3-1-0.7-1.3-1.3c-0.3-0.6-0.5-1.2-0.5-2.1v-5.4H34.7z"/>
	<path fill="#FBAF29" d="M51.3,229.7l-1.8-2.8l-1.6,2.8h-2.5l2.9-4.6l-3-4.4h2.6l1.8,2.7l1.6-2.7h2.5l-2.9,4.6l3,4.5H51.3z"/>
	<path fill="#FBAF29" d="M61.2,220.6v5.4c0,0.5,0.1,1,0.4,1.2c0.3,0.3,0.7,0.4,1.2,0.4c0.5,0,0.9-0.1,1.2-0.4
		c0.3-0.3,0.4-0.7,0.4-1.2v-5.4h2.2v5.4c0,0.8-0.2,1.5-0.5,2c-0.3,0.6-0.8,1-1.4,1.3s-1.2,0.4-1.9,0.4c-0.7,0-1.3-0.1-1.9-0.4
		c-0.6-0.3-1-0.7-1.3-1.3c-0.3-0.6-0.5-1.2-0.5-2.1v-5.4H61.2z"/>
	<path fill="#FBAF29" d="M76.8,229.7l-1.9-3.4h-0.5v3.4h-2.2v-9h3.7c0.7,0,1.3,0.1,1.8,0.4c0.5,0.2,0.9,0.6,1.1,1
		c0.2,0.4,0.4,0.9,0.4,1.4c0,0.6-0.2,1.1-0.5,1.6c-0.3,0.5-0.8,0.8-1.5,1l2.1,3.6H76.8z M74.4,224.7h1.4c0.4,0,0.7-0.1,0.9-0.3
		c0.2-0.2,0.3-0.5,0.3-0.8c0-0.3-0.1-0.6-0.3-0.8c-0.2-0.2-0.5-0.3-0.9-0.3h-1.4V224.7z"/>
	<path fill="#FBAF29" d="M92.5,220.6l-3.1,6v3h-2.2v-3l-3.1-6h2.5l1.7,3.8l1.7-3.8H92.5z"/>
	<path fill="#FBAF29" d="M104.5,222.8c0.4-0.7,0.9-1.2,1.6-1.6c0.7-0.4,1.5-0.6,2.3-0.6c1.1,0,2,0.3,2.8,0.8
		c0.8,0.6,1.3,1.3,1.5,2.3h-2.4c-0.2-0.4-0.4-0.7-0.8-0.9c-0.3-0.2-0.7-0.3-1.1-0.3c-0.7,0-1.2,0.2-1.6,0.7s-0.6,1.1-0.6,1.9
		c0,0.8,0.2,1.4,0.6,1.9s1,0.7,1.6,0.7c0.4,0,0.8-0.1,1.1-0.3c0.3-0.2,0.6-0.5,0.8-0.9h2.4c-0.3,1-0.8,1.7-1.5,2.3
		c-0.8,0.6-1.7,0.8-2.8,0.8c-0.9,0-1.7-0.2-2.3-0.6s-1.2-0.9-1.6-1.6c-0.4-0.7-0.6-1.5-0.6-2.4C103.9,224.2,104.1,223.5,104.5,222.8
		z"/>
	<path fill="#FBAF29" d="M120.2,229.2c-0.7-0.4-1.3-0.9-1.7-1.7c-0.4-0.7-0.6-1.5-0.6-2.4s0.2-1.7,0.6-2.4c0.4-0.7,1-1.3,1.7-1.6
		c0.7-0.4,1.5-0.6,2.3-0.6c0.8,0,1.6,0.2,2.3,0.6c0.7,0.4,1.3,0.9,1.7,1.6c0.4,0.7,0.6,1.5,0.6,2.4s-0.2,1.7-0.6,2.4
		c-0.4,0.7-1,1.3-1.7,1.7c-0.7,0.4-1.5,0.6-2.3,0.6C121.6,229.8,120.9,229.6,120.2,229.2z M124.2,227c0.4-0.5,0.6-1.1,0.6-1.9
		c0-0.8-0.2-1.4-0.6-1.9c-0.4-0.5-1-0.7-1.7-0.7c-0.7,0-1.3,0.2-1.7,0.7c-0.4,0.5-0.6,1.1-0.6,1.9c0,0.8,0.2,1.4,0.6,1.9
		c0.4,0.5,1,0.7,1.7,0.7C123.2,227.7,123.8,227.5,124.2,227z"/>
	<path fill="#FBAF29" d="M140.5,229.7h-2.2l-3.7-5.6v5.6h-2.2v-9h2.2l3.7,5.6v-5.6h2.2V229.7z"/>
	<path fill="#FBAF29" d="M146.4,222.8c0.4-0.7,0.9-1.2,1.6-1.6c0.7-0.4,1.5-0.6,2.3-0.6c1.1,0,2,0.3,2.8,0.8
		c0.8,0.6,1.3,1.3,1.5,2.3h-2.4c-0.2-0.4-0.4-0.7-0.8-0.9c-0.3-0.2-0.7-0.3-1.1-0.3c-0.7,0-1.2,0.2-1.6,0.7
		c-0.4,0.5-0.6,1.1-0.6,1.9c0,0.8,0.2,1.4,0.6,1.9c0.4,0.5,1,0.7,1.6,0.7c0.4,0,0.8-0.1,1.1-0.3c0.3-0.2,0.6-0.5,0.8-0.9h2.4
		c-0.3,1-0.8,1.7-1.5,2.3c-0.8,0.6-1.7,0.8-2.8,0.8c-0.9,0-1.7-0.2-2.3-0.6c-0.7-0.4-1.2-0.9-1.6-1.6c-0.4-0.7-0.6-1.5-0.6-2.4
		C145.9,224.2,146,223.5,146.4,222.8z"/>
	<path fill="#FBAF29" d="M162.3,220.6v9h-2.2v-9H162.3z"/>
	<path fill="#FBAF29" d="M170.2,222.4v1.8h2.9v1.7h-2.9v2h3.3v1.8H168v-9h5.5v1.8H170.2z"/>
	<path fill="#FBAF29" d="M183.7,229.7l-1.9-3.4h-0.5v3.4h-2.2v-9h3.7c0.7,0,1.3,0.1,1.8,0.4c0.5,0.2,0.9,0.6,1.1,1
		c0.2,0.4,0.4,0.9,0.4,1.4c0,0.6-0.2,1.1-0.5,1.6c-0.3,0.5-0.8,0.8-1.5,1l2.1,3.6H183.7z M181.3,224.7h1.4c0.4,0,0.7-0.1,0.9-0.3
		c0.2-0.2,0.3-0.5,0.3-0.8c0-0.3-0.1-0.6-0.3-0.8c-0.2-0.2-0.5-0.3-0.9-0.3h-1.4V224.7z"/>
	<path fill="#FBAF29" d="M197.6,223.5c-0.2-0.3-0.4-0.5-0.7-0.7s-0.7-0.2-1.1-0.2c-0.7,0-1.3,0.2-1.7,0.7c-0.4,0.5-0.6,1.1-0.6,1.9
		c0,0.8,0.2,1.5,0.7,1.9c0.5,0.5,1.1,0.7,1.9,0.7c0.5,0,1-0.1,1.4-0.4c0.4-0.3,0.6-0.7,0.8-1.2h-2.8v-1.6h4.8v2
		c-0.2,0.5-0.4,1.1-0.8,1.5c-0.4,0.5-0.9,0.9-1.5,1.1c-0.6,0.3-1.3,0.4-2,0.4c-0.9,0-1.7-0.2-2.4-0.6c-0.7-0.4-1.2-0.9-1.6-1.6
		c-0.4-0.7-0.6-1.5-0.6-2.4c0-0.9,0.2-1.7,0.6-2.4c0.4-0.7,0.9-1.2,1.6-1.6c0.7-0.4,1.5-0.6,2.4-0.6c1.1,0,2,0.3,2.7,0.8
		c0.7,0.5,1.2,1.2,1.5,2.2H197.6z"/>
	<path fill="#FBAF29" d="M207.7,222.4v1.8h2.9v1.7h-2.9v2h3.3v1.8h-5.5v-9h5.5v1.8H207.7z"/>
</g>
</svg>
