<?xml version="1.0" encoding="utf-8"?>
<!-- Generator: Adobe Illustrator 18.1.1, SVG Export Plug-In . SVG Version: 6.00 Build 0)  -->
<svg version="1.1" id="Layer_1" xmlns="http://www.w3.org/2000/svg" xmlns:xlink="http://www.w3.org/1999/xlink" x="0px" y="0px"
	 viewBox="0 0 650 250" enable-background="new 0 0 650 250" xml:space="preserve">
<g>
	<g>
		<path fill="none" stroke="#FBAF29" stroke-width="4" stroke-linecap="round" stroke-linejoin="round" stroke-miterlimit="10" d="
			M49,186.7c-3.6-34.9,3.8-72.5,28.6-98.7c0.4-0.4,0.9,0,0.7,0.5c-15.2,32.7-16.6,65.9-15.4,86.9c0.2,4.2,0.7,8.4,1.3,12.5"/>
		
			<line fill="none" stroke="#FBAF29" stroke-width="4" stroke-linecap="round" stroke-linejoin="round" stroke-miterlimit="10" x1="60.4" y1="113.1" x2="69.7" y2="110.5"/>
		
			<line fill="none" stroke="#FBAF29" stroke-width="4" stroke-linecap="round" stroke-linejoin="round" stroke-miterlimit="10" x1="55.2" y1="130" x2="64.5" y2="127.4"/>
		
			<line fill="none" stroke="#FBAF29" stroke-width="4" stroke-linecap="round" stroke-linejoin="round" stroke-miterlimit="10" x1="50.9" y1="144.8" x2="63.9" y2="141.1"/>
		
			<line fill="none" stroke="#FBAF29" stroke-width="4" stroke-linecap="round" stroke-linejoin="round" stroke-miterlimit="10" x1="49" y1="160.8" x2="62.1" y2="157.2"/>
		
			<line fill="none" stroke="#FBAF29" stroke-width="4" stroke-linecap="round" stroke-linejoin="round" stroke-miterlimit="10" x1="49.8" y1="176.9" x2="62.8" y2="173.2"/>
		
			<line fill="none" stroke="#FBAF29" stroke-width="4" stroke-linecap="round" stroke-linejoin="round" stroke-miterlimit="10" x1="60.7" y1="186.9" x2="63.2" y2="186.2"/>
	</g>
	<g>
		<g>
			<g>
				
					<path fill="none" stroke="#FBAF29" stroke-width="4" stroke-linecap="round" stroke-linejoin="round" stroke-miterlimit="10" d="
					M76.7,89.4c-25.7-2.2-43.9,7.2-50.9,34.2"/>
				
					<path fill="none" stroke="#FBAF29" stroke-width="4" stroke-linecap="round" stroke-linejoin="round" stroke-miterlimit="10" d="
					M58,90.2c0,0-17.1,4.8-19.6,26.2"/>
				
					<path fill="none" stroke="#FBAF29" stroke-width="4" stroke-linecap="round" stroke-linejoin="round" stroke-miterlimit="10" d="
					M69,89.1c0,0-14.1-0.8-18.3,20"/>
			</g>
			<g>
				
					<path fill="none" stroke="#FBAF29" stroke-width="4" stroke-linecap="round" stroke-linejoin="round" stroke-miterlimit="10" d="
					M22.3,73.8c14.8-6.5,27.7-5,39.4,2.7c0,0,0,0,0,0c2.7,1.8,5.4,3.9,7.9,6.4c2,1.9,4,4,5.9,6.3"/>
				
					<path fill="none" stroke="#FBAF29" stroke-width="4" stroke-linecap="round" stroke-linejoin="round" stroke-miterlimit="10" d="
					M61.7,76.5c0,0-15.5-8.7-32.4,4.6"/>
				
					<path fill="none" stroke="#FBAF29" stroke-width="4" stroke-linecap="round" stroke-linejoin="round" stroke-miterlimit="10" d="
					M70.3,83.5c0,0-9.4-10.5-27.1,1.2"/>
			</g>
			<g>
				
					<path fill="none" stroke="#FBAF29" stroke-width="4" stroke-linecap="round" stroke-linejoin="round" stroke-miterlimit="10" d="
					M46.1,43.6c15.4,4.5,24.3,13.9,28.3,27.2c1,3.2,1.6,6.5,2,10.1c0,0.1,0,0.1,0,0.2c0,0.2,0,0.4,0.1,0.6c0.2,2.3,0.4,4.7,0.4,7.2
					c0,0.2,0,0.4,0,0.5"/>
				
					<path fill="none" stroke="#FBAF29" stroke-width="4" stroke-linecap="round" stroke-linejoin="round" stroke-miterlimit="10" d="
					M74.4,70.9c0,0-6.3-16.7-27.8-17.2"/>
				
					<path fill="none" stroke="#FBAF29" stroke-width="4" stroke-linecap="round" stroke-linejoin="round" stroke-miterlimit="10" d="
					M76.5,81.7c0,0-0.5-14.1-21.6-16.4"/>
			</g>
		</g>
		<g>
			<g>
				
					<path fill="none" stroke="#FBAF29" stroke-width="4" stroke-linecap="round" stroke-linejoin="round" stroke-miterlimit="10" d="
					M77.9,89.1c21.6,14.1,30.1,32.8,19,58.3"/>
				
					<path fill="none" stroke="#FBAF29" stroke-width="4" stroke-linecap="round" stroke-linejoin="round" stroke-miterlimit="10" d="
					M92.1,101.2c0,0,10.5,14.4-0.7,32.7"/>
				
					<path fill="none" stroke="#FBAF29" stroke-width="4" stroke-linecap="round" stroke-linejoin="round" stroke-miterlimit="10" d="
					M84.1,93.6c0,0,11.6,8.1,2.1,27"/>
			</g>
			<g>
				
					<path fill="none" stroke="#FBAF29" stroke-width="4" stroke-linecap="round" stroke-linejoin="round" stroke-miterlimit="10" d="
					M129.3,108.6c-7.6-13-18.4-19.4-31.7-20.4c-3.2-0.3-6.7-0.2-10.2,0.2c0,0,0,0,0,0c-0.3,0-0.6,0.1-0.8,0.1
					c-2.5,0.3-5,0.7-7.6,1.2"/>
				
					<path fill="none" stroke="#FBAF29" stroke-width="4" stroke-linecap="round" stroke-linejoin="round" stroke-miterlimit="10" d="
					M120.2,111.8c-0.2-0.9-0.5-1.8-0.7-2.6c-0.7-2.1-1.5-4-2.4-5.7c-0.7-1.3-1.4-2.5-2.2-3.6c-7.1-10.1-17.3-11.6-17.3-11.6"/>
				
					<path fill="none" stroke="#FBAF29" stroke-width="4" stroke-linecap="round" stroke-linejoin="round" stroke-miterlimit="10" d="
					M107.1,106c-0.4-1.1-0.7-2.1-1.2-3.1c-0.9-2.3-2-4.2-3.1-5.8c-5.8-8.5-13-9-15.5-8.9c0,0,0,0,0,0c-0.5,0-0.8,0.1-0.8,0.1"/>
			</g>
			<g>
				
					<path fill="none" stroke="#FBAF29" stroke-width="4" stroke-linecap="round" stroke-linejoin="round" stroke-miterlimit="10" d="
					M77.7,89c15.9-20.3,35.3-27.1,59.8-13.7"/>
				
					<path fill="none" stroke="#FBAF29" stroke-width="5" stroke-linecap="round" stroke-linejoin="round" stroke-miterlimit="10" d="
					M177.7,74.9c3.4,10.5-6.1,20.1-16.6,16.6c-3.8-1.2-6.8-4.2-8-8c-3.4-10.5,6.1-20.1,16.6-16.6C173.5,68.1,176.5,71.1,177.7,74.9z
					"/>
				
					<path fill="none" stroke="#FBAF29" stroke-width="4" stroke-linecap="round" stroke-linejoin="round" stroke-miterlimit="10" d="
					M91.1,75.9c0,0,15.3-9.2,32.5,3.6"/>
				
					<path fill="none" stroke="#FBAF29" stroke-width="4" stroke-linecap="round" stroke-linejoin="round" stroke-miterlimit="10" d="
					M82.8,83.1c0,0,9.1-10.8,27.1,0.4"/>
			</g>
		</g>
	</g>
	<g>
		<path fill="none" stroke="#FBAF29" stroke-width="4" stroke-linecap="round" stroke-linejoin="round" stroke-miterlimit="10" d="
			M92.4,195.9c4.1-29.5,18-59.1,44-75.2c0.4-0.2,0.7,0.2,0.5,0.5c-19,22.8-27.1,49-30.6,66.1c-0.6,2.8-1.1,5.7-1.4,8.6"/>
		
			<line fill="none" stroke="#FBAF29" stroke-width="4" stroke-linecap="round" stroke-linejoin="round" stroke-miterlimit="10" x1="117.4" y1="137.1" x2="125.3" y2="137"/>
		
			<line fill="none" stroke="#FBAF29" stroke-width="4" stroke-linecap="round" stroke-linejoin="round" stroke-miterlimit="10" x1="109.6" y1="149.5" x2="117.6" y2="149.3"/>
		
			<line fill="none" stroke="#FBAF29" stroke-width="4" stroke-linecap="round" stroke-linejoin="round" stroke-miterlimit="10" x1="103.1" y1="160.3" x2="114.3" y2="160.1"/>
		
			<line fill="none" stroke="#FBAF29" stroke-width="4" stroke-linecap="round" stroke-linejoin="round" stroke-miterlimit="10" x1="98.2" y1="172.7" x2="109.4" y2="172.5"/>
		
			<line fill="none" stroke="#FBAF29" stroke-width="4" stroke-linecap="round" stroke-linejoin="round" stroke-miterlimit="10" x1="95.4" y1="185.7" x2="106.6" y2="185.5"/>
		
			<line fill="none" stroke="#FBAF29" stroke-width="4" stroke-linecap="round" stroke-linejoin="round" stroke-miterlimit="10" x1="93" y1="196.1" x2="104.2" y2="195.9"/>
	</g>
	<g>
		<g>
			<g>
				
					<path fill="none" stroke="#FBAF29" stroke-width="4" stroke-linecap="round" stroke-linejoin="round" stroke-miterlimit="10" d="
					M135.4,121.6c-6-8.3-24.6-10.8-34-5.5"/>
				
					<path fill="none" stroke="#FBAF29" stroke-width="4" stroke-linecap="round" stroke-linejoin="round" stroke-miterlimit="10" d="
					M128.3,116.4c0,0-11.1-3.6-18.8,12.1"/>
			</g>
			<g>
				
					<path fill="none" stroke="#FBAF29" stroke-width="4" stroke-linecap="round" stroke-linejoin="round" stroke-miterlimit="10" d="
					M123.7,79.5c11.1,8.4,13.4,15.3,13.8,26.8c0.1,2.7-0.1,5.5-0.5,8.5c0,0,0,0.1,0,0.1c0,0.2-0.1,0.3-0.1,0.5
					c-0.3,1.9-0.7,3.8-1.2,5.8c0,0.1-0.1,0.3-0.1,0.4"/>
				
					<path fill="none" stroke="#FBAF29" stroke-width="4" stroke-linecap="round" stroke-linejoin="round" stroke-miterlimit="10" d="
					M137.4,106.3c0,0-1.5-14.6-18.6-19.6"/>
			</g>
		</g>
		<g>
			<g>
				
					<path fill="none" stroke="#FBAF29" stroke-width="4" stroke-linecap="round" stroke-linejoin="round" stroke-miterlimit="10" d="
					M136.4,121.6c14.3,15.8,17.1,32.5,2.8,50.5"/>
				
					<path fill="none" stroke="#FBAF29" stroke-width="4" stroke-linecap="round" stroke-linejoin="round" stroke-miterlimit="10" d="
					M145.2,134.3c0,0,5.4,13.7-7.5,25.9"/>
				
					<path fill="none" stroke="#FBAF29" stroke-width="4" stroke-linecap="round" stroke-linejoin="round" stroke-miterlimit="10" d="
					M140.4,126.5c0,0,7.5,8.9-4.1,22"/>
			</g>
			<g>
				
					<path fill="none" stroke="#FBAF29" stroke-width="4" stroke-linecap="round" stroke-linejoin="round" stroke-miterlimit="10" d="
					M137.1,122.2c18.6,1,31.5,8.6,36.2,25.8"/>
				
					<path fill="none" stroke="#FBAF29" stroke-width="4" stroke-linecap="round" stroke-linejoin="round" stroke-miterlimit="10" d="
					M152.3,125c0,0,13.5,5.9,13.1,23.6"/>
				
					<path fill="none" stroke="#FBAF29" stroke-width="4" stroke-linecap="round" stroke-linejoin="round" stroke-miterlimit="10" d="
					M143.4,122.9c0,0,11.6,0.9,12.7,18.4"/>
			</g>
			<g>
				
					<path fill="none" stroke="#FBAF29" stroke-width="4" stroke-linecap="round" stroke-linejoin="round" stroke-miterlimit="10" d="
					M136.3,121.5c17-12.8,33.9-14.1,50.6,1.7"/>
				
					<path fill="none" stroke="#FBAF29" stroke-width="4" stroke-linecap="round" stroke-linejoin="round" stroke-miterlimit="10" d="
					M149.7,113.8c0,0,14.1-4.1,25.2,9.8"/>
				
					<path fill="none" stroke="#FBAF29" stroke-width="4" stroke-linecap="round" stroke-linejoin="round" stroke-miterlimit="10" d="
					M141.5,117.9c0,0,9.5-6.7,21.6,6"/>
			</g>
		</g>
	</g>
	<path fill="none" stroke="#FBAF29" stroke-width="5" stroke-linecap="round" stroke-linejoin="round" stroke-miterlimit="10" d="
		M11.8,202.4c1.6-1.2,3.3-2.4,5.1-3.5c11.4-7.3,25-11.5,39.6-11.5c15.1,0,29.2,4.5,41,12.3c4.7,3.1,9.1,6.8,13,10.9
		c3.4,3.6,6.5,7.6,9.2,11.9c1.8,2.9,3.5,6,4.9,9.2"/>
	<path fill="none" stroke="#FBAF29" stroke-width="5" stroke-linecap="round" stroke-linejoin="round" stroke-miterlimit="10" d="
		M11.8,224.4c1.6-1.9,3.3-3.7,5.1-5.3c4-3.7,8.5-6.9,13.4-9.3c7.9-4,16.8-6.2,26.2-6.2c10.1,0,19.7,2.6,28,7.2
		c4.8,2.6,9.1,5.9,12.9,9.7c3.5,3.4,6.5,7.2,9,11.4"/>
	<path fill="none" stroke="#FBAF29" stroke-width="5" stroke-linecap="round" stroke-linejoin="round" stroke-miterlimit="10" d="
		M88,231.7c-3.6-3.8-7.9-6.9-12.7-9.2c-5.7-2.8-12.1-4.3-18.8-4.3c-5.9,0-11.6,1.2-16.8,3.3c-5,2.1-9.5,5.1-13.4,8.8
		c-0.5,0.4-0.9,0.9-1.3,1.3"/>
	<g>
		<path fill="none" stroke="#FBAF29" stroke-width="5" stroke-linecap="round" stroke-linejoin="round" stroke-miterlimit="10" d="
			M200.5,188.9c-8.5,1.7-16.5,4.9-23.7,9.2c-5,3-9.6,6.7-13.8,10.8c-3.6,3.6-6.9,7.6-9.7,11.9c-2.3,3.4-4.2,7.1-5.9,10.9"/>
		<path fill="none" stroke="#FBAF29" stroke-width="5" stroke-linecap="round" stroke-linejoin="round" stroke-miterlimit="10" d="
			M165.4,231.7c0.5-0.9,1.1-1.8,1.7-2.7c2.8-4.1,6-7.8,9.7-11.1c4.1-3.6,8.8-6.7,13.8-9c3.1-1.5,6.4-2.7,9.9-3.6"/>
		<path fill="none" stroke="#FBAF29" stroke-width="5" stroke-linecap="round" stroke-linejoin="round" stroke-miterlimit="10" d="
			M183.9,231.7c0.9-0.9,1.8-1.8,2.8-2.7c4-3.5,8.7-6.3,13.8-8.2c0,0,0.1,0,0.1,0"/>
	</g>
	<g>
		<path fill="none" stroke="#FBAF29" stroke-width="5" stroke-linecap="round" stroke-linejoin="round" stroke-miterlimit="10" d="
			M16.9,198.9c-1.6-1-3.3-2-5.1-2.9"/>
	</g>
	<g>
		<path fill="none" stroke="#FBAF29" stroke-width="5" stroke-linecap="round" stroke-linejoin="round" stroke-miterlimit="10" d="
			M97.5,199.7c11.7-7.8,25.8-12.3,40.9-12.3c14.1,0,27.2,3.9,38.5,10.7"/>
		<path fill="none" stroke="#FBAF29" stroke-width="5" stroke-linecap="round" stroke-linejoin="round" stroke-miterlimit="10" d="
			M110.4,210.6c8.3-4.6,17.8-7.2,28-7.2c8.8,0,17.2,2,24.7,5.5"/>
		<path fill="none" stroke="#FBAF29" stroke-width="5" stroke-linecap="round" stroke-linejoin="round" stroke-miterlimit="10" d="
			M119.6,222.5c5.7-2.8,12.1-4.3,18.8-4.3c5.2,0,10.3,0.9,14.9,2.6"/>
	</g>
	<path fill="none" stroke="#FBAF29" stroke-width="5" stroke-linecap="round" stroke-linejoin="round" stroke-miterlimit="10" d="
		M200.5,232H11.9V110.2c0-50.5,41-91.5,91.5-91.5h5.6c50.5,0,91.5,41,91.5,91.5V232z"/>
</g>
<g>
	<path fill="#FBAF29" d="M211.7,138.4h46.9l0.9,18.6h-1.6c-2.5-6.3-5.2-10.7-7.9-13c-2.8-2.4-6.8-3.5-12.2-3.5h-3.2v29.1h3.1
		c2.8,0,5.2-1.1,7.1-3.3c1.9-2.2,3.3-5.2,4.1-9h1.4V185h-1.5c-1.1-4.7-2.5-8.1-4.4-10.1c-1.8-2-4.3-3-7.5-3h-2.2v30.2h3.4
		c5.5,0,10.2-1.7,14.1-5.2c3.9-3.4,6.5-7.9,8-13.3h1.8l-0.7,20.5h-49.5v-2.1h5.3v-61.7h-5.3V138.4z"/>
	<path fill="#FBAF29" d="M277,138.4h32.5v2.1h-9.6v61.7h3.2c5.1,0,9.2-1.6,12.2-4.9c3-3.3,6.1-8.3,9.2-15.1h1.9l-1.7,22H277v-2.1
		h5.3v-61.7H277V138.4z"/>
	<path fill="#FBAF29" d="M366.4,169.3l12.8-29.5h-9.1v-1.5h17.8v1.5h-5.9l-13.6,31.4v31.2h5.5v1.8h-28.6v-1.8h5.5v-29.4l-15.3-33.2
		h-4.2v-1.5H360v1.5h-5.9L366.4,169.3z"/>
	<path fill="#FBAF29" d="M420.8,203.2c3,0,5.7-0.8,8-2.5s3.5-4.2,3.5-7.7s-1.2-6-3.7-7.9c-2.5-1.8-6-3.4-10.6-4.8
		c-4.6-1.3-7.9-2.5-10-3.5c-2.1-1-4-2.3-5.9-4c-3.7-3.3-5.6-8.3-5.6-15.2c0-5.6,1.9-10.4,5.7-14.4c3.8-4,9-6,15.6-6
		c3.2,0,6.5,0.5,10,1.5c3.5,1,5.6,1.5,6.4,1.5s1.6-0.6,2.3-1.9h1l0.6,19h-1.4c-2.9-5.5-5.9-9.8-9.1-13.1c-3.2-3.3-6.6-4.9-10.3-4.9
		s-6.6,0.9-8.6,2.7c-2,1.8-3.1,4.2-3.1,7.2s1.2,5.3,3.7,6.9c2.4,1.6,5.4,2.9,9,3.9c3.5,1,5.9,1.7,7,2.1c1.1,0.4,2.5,0.9,4.1,1.6
		c1.7,0.7,3,1.4,4.1,2.1c1.1,0.7,2.2,1.6,3.3,2.7c1.2,1.1,2.1,2.3,2.8,3.6c1.6,3,2.4,6.6,2.4,10.7c0,6.8-2,12.2-6.1,16.3
		c-4.1,4.1-9.4,6.2-16,6.2c-3.4,0-7.3-0.5-11.8-1.4c-4.4-0.9-6.9-1.4-7.3-1.4c-0.8,0-1.7,0.9-2.4,2.8H397l-0.9-22.4h1.5
		c2.6,5.5,6,10.2,10.1,14.3C411.9,201.2,416.3,203.2,420.8,203.2z"/>
	<path fill="#FBAF29" d="M456.9,138.4h27.5v1.8h-5v62.3h5v1.8h-27.5v-1.8h5v-62.3h-5V138.4z"/>
	<path fill="#FBAF29" d="M522.9,197.5c1.9,3.1,5.3,4.6,10.2,4.6c4.9,0,8.7-1.6,11.4-4.8c2.6-3.2,4-8.1,4-14.6v-42.5h-5.9v-1.8h13.2
		v1.8h-5V182c0,7.8-1.7,13.6-5,17.4c-3.3,3.8-9.2,5.7-17.5,5.7c-8.4,0-14.8-1.8-19.2-5.5c-4.4-3.6-6.6-9.9-6.6-18.7v-40.8h-5v-1.8
		H526v1.8h-5.9v44C520.1,190,521,194.4,522.9,197.5z"/>
	<path fill="#FBAF29" d="M615.6,138.4h24.1v1.8h-5v62.3h5v1.8h-27.5v-1.8h5v-58.8h-0.4l-13.5,60.6H592l-15.9-60.9h-0.4v59.1h5v1.8
		h-12.3v-1.8h5v-62.3h-5v-1.8h24.3l12,48.5L615.6,138.4z"/>
</g>
<g>
	<path fill="#FBAF29" d="M220.6,229.9h6.4v3.8h-11.3v-20.1h4.9V229.9z"/>
	<path fill="#FBAF29" d="M243.3,213.6v12c0,1.2,0.3,2.1,0.9,2.8c0.6,0.6,1.5,1,2.6,1c1.1,0,2-0.3,2.6-1c0.6-0.6,0.9-1.6,0.9-2.8v-12
		h4.9v12c0,1.8-0.4,3.3-1.1,4.5c-0.8,1.2-1.8,2.2-3.1,2.8s-2.7,0.9-4.3,0.9c-1.6,0-3-0.3-4.2-0.9c-1.2-0.6-2.2-1.6-3-2.8
		c-0.7-1.2-1.1-2.8-1.1-4.6v-12H243.3z"/>
	<path fill="#FBAF29" d="M280.1,233.7l-4.1-6.2l-3.6,6.2h-5.6l6.4-10.2l-6.6-9.9h5.7l4,6.1l3.5-6.1h5.6l-6.4,10.1l6.6,10H280.1z"/>
	<path fill="#FBAF29" d="M302.3,213.6v12c0,1.2,0.3,2.1,0.9,2.8c0.6,0.6,1.5,1,2.6,1c1.1,0,2-0.3,2.6-1c0.6-0.6,0.9-1.6,0.9-2.8v-12
		h4.9v12c0,1.8-0.4,3.3-1.1,4.5c-0.8,1.2-1.8,2.2-3.1,2.8c-1.3,0.6-2.7,0.9-4.3,0.9c-1.6,0-3-0.3-4.2-0.9c-1.2-0.6-2.2-1.6-3-2.8
		c-0.7-1.2-1.1-2.8-1.1-4.6v-12H302.3z"/>
	<path fill="#FBAF29" d="M337,233.7l-4.2-7.6h-1.2v7.6h-4.9v-20.1h8.2c1.6,0,2.9,0.3,4,0.8c1.1,0.6,1.9,1.3,2.5,2.3
		c0.6,1,0.8,2,0.8,3.2c0,1.3-0.4,2.5-1.1,3.6c-0.8,1-1.9,1.8-3.3,2.2l4.6,8H337z M331.7,222.6h3c0.9,0,1.6-0.2,2-0.7
		c0.4-0.4,0.7-1.1,0.7-1.9c0-0.8-0.2-1.4-0.7-1.8c-0.4-0.4-1.1-0.7-2-0.7h-3V222.6z"/>
	<path fill="#FBAF29" d="M371.8,213.6l-7,13.4v6.6H360V227l-7-13.4h5.6l3.9,8.4l3.9-8.4H371.8z"/>
	<path fill="#FBAF29" d="M398.6,218.3c0.9-1.6,2.1-2.8,3.6-3.6s3.3-1.3,5.2-1.3c2.4,0,4.4,0.6,6.1,1.9c1.7,1.3,2.8,3,3.4,5.1h-5.4
		c-0.4-0.8-1-1.5-1.7-1.9c-0.7-0.4-1.6-0.7-2.5-0.7c-1.5,0-2.7,0.5-3.7,1.6c-0.9,1-1.4,2.5-1.4,4.2c0,1.8,0.5,3.2,1.4,4.2
		c0.9,1,2.2,1.6,3.7,1.6c0.9,0,1.8-0.2,2.5-0.7c0.7-0.4,1.3-1.1,1.7-1.9h5.4c-0.6,2.2-1.7,3.9-3.4,5.1c-1.7,1.2-3.7,1.9-6.1,1.9
		c-1.9,0-3.7-0.4-5.2-1.3c-1.5-0.9-2.7-2.1-3.6-3.6c-0.9-1.5-1.3-3.3-1.3-5.3C397.3,221.6,397.8,219.9,398.6,218.3z"/>
	<path fill="#FBAF29" d="M433.4,232.6c-1.6-0.9-2.8-2.1-3.7-3.7c-0.9-1.6-1.4-3.3-1.4-5.3c0-2,0.5-3.7,1.4-5.3
		c0.9-1.6,2.2-2.8,3.7-3.7c1.6-0.9,3.3-1.3,5.2-1.3c1.9,0,3.6,0.4,5.2,1.3c1.6,0.9,2.8,2.1,3.7,3.7c0.9,1.6,1.4,3.3,1.4,5.3
		c0,2-0.5,3.7-1.4,5.3c-0.9,1.6-2.2,2.8-3.7,3.7c-1.6,0.9-3.3,1.3-5.2,1.3C436.7,233.9,435,233.4,433.4,232.6z M442.5,227.8
		c1-1.1,1.4-2.5,1.4-4.2c0-1.8-0.5-3.2-1.4-4.2c-1-1.1-2.2-1.6-3.8-1.6c-1.6,0-2.9,0.5-3.9,1.6c-1,1.1-1.4,2.5-1.4,4.3
		c0,1.8,0.5,3.2,1.4,4.2c1,1.1,2.3,1.6,3.9,1.6C440.2,229.4,441.5,228.9,442.5,227.8z"/>
	<path fill="#FBAF29" d="M478.7,233.7h-4.9l-8.2-12.4v12.4h-4.9v-20.1h4.9l8.2,12.4v-12.4h4.9V233.7z"/>
	<path fill="#FBAF29" d="M491.9,218.3c0.9-1.6,2.1-2.8,3.6-3.6c1.5-0.9,3.3-1.3,5.2-1.3c2.4,0,4.4,0.6,6.1,1.9
		c1.7,1.3,2.8,3,3.4,5.1h-5.4c-0.4-0.8-1-1.5-1.7-1.9c-0.7-0.4-1.6-0.7-2.5-0.7c-1.5,0-2.7,0.5-3.7,1.6s-1.4,2.5-1.4,4.2
		c0,1.8,0.5,3.2,1.4,4.2c0.9,1,2.2,1.6,3.7,1.6c0.9,0,1.8-0.2,2.5-0.7c0.7-0.4,1.3-1.1,1.7-1.9h5.4c-0.6,2.2-1.7,3.9-3.4,5.1
		c-1.7,1.2-3.7,1.9-6.1,1.9c-1.9,0-3.7-0.4-5.2-1.3c-1.5-0.9-2.7-2.1-3.6-3.6c-0.9-1.5-1.3-3.3-1.3-5.3
		C490.6,221.6,491,219.9,491.9,218.3z"/>
	<path fill="#FBAF29" d="M527.3,213.6v20.1h-4.9v-20.1H527.3z"/>
	<path fill="#FBAF29" d="M544.9,217.5v4.1h6.6v3.8h-6.6v4.4h7.4v3.9H540v-20.1h12.3v3.9H544.9z"/>
	<path fill="#FBAF29" d="M574.9,233.7l-4.2-7.6h-1.2v7.6h-4.9v-20.1h8.2c1.6,0,2.9,0.3,4,0.8c1.1,0.6,1.9,1.3,2.5,2.3
		c0.6,1,0.8,2,0.8,3.2c0,1.3-0.4,2.5-1.1,3.6c-0.8,1-1.9,1.8-3.3,2.2l4.6,8H574.9z M569.5,222.6h3c0.9,0,1.6-0.2,2-0.7
		c0.4-0.4,0.7-1.1,0.7-1.9c0-0.8-0.2-1.4-0.7-1.8c-0.4-0.4-1.1-0.7-2-0.7h-3V222.6z"/>
	<path fill="#FBAF29" d="M605.8,219.9c-0.4-0.7-0.9-1.2-1.6-1.5s-1.5-0.5-2.4-0.5c-1.6,0-2.9,0.5-3.8,1.6c-1,1-1.4,2.4-1.4,4.2
		c0,1.9,0.5,3.3,1.5,4.3c1,1,2.4,1.6,4.1,1.6c1.2,0,2.2-0.3,3-0.9c0.8-0.6,1.4-1.5,1.8-2.6h-6.2v-3.6h10.6v4.6
		c-0.4,1.2-1,2.4-1.8,3.4s-2,1.9-3.3,2.5s-2.8,1-4.5,1c-2,0-3.8-0.4-5.3-1.3c-1.6-0.9-2.8-2.1-3.6-3.6s-1.3-3.3-1.3-5.3
		c0-2,0.4-3.8,1.3-5.3c0.9-1.6,2.1-2.8,3.6-3.6c1.5-0.9,3.3-1.3,5.3-1.3c2.4,0,4.4,0.6,6.1,1.7c1.7,1.2,2.7,2.8,3.3,4.8H605.8z"/>
	<path fill="#FBAF29" d="M628.3,217.5v4.1h6.6v3.8h-6.6v4.4h7.4v3.9h-12.3v-20.1h12.3v3.9H628.3z"/>
</g>
</svg>
