<?xml version="1.0" encoding="utf-8"?>
<!-- Generator: Adobe Illustrator 18.1.1, SVG Export Plug-In . SVG Version: 6.00 Build 0)  -->
<svg version="1.1" id="Layer_1" xmlns="http://www.w3.org/2000/svg" xmlns:xlink="http://www.w3.org/1999/xlink" x="0px" y="0px"
	 viewBox="0 0 240 300" enable-background="new 0 0 240 300" xml:space="preserve">
<g>
	<path fill="none" stroke="#FBAF29" stroke-width="4" stroke-linecap="round" stroke-linejoin="round" stroke-miterlimit="10" d="
		M64,182.8c-3.5-34.2,3.7-71,28-96.6c0.3-0.4,0.9,0,0.7,0.5c-14.9,32-16.2,64.5-15.1,85.1c0.2,4.1,0.7,8.2,1.3,12.3"/>
	
		<line fill="none" stroke="#FBAF29" stroke-width="4" stroke-linecap="round" stroke-linejoin="round" stroke-miterlimit="10" x1="75.2" y1="110.8" x2="84.3" y2="108.2"/>
	
		<line fill="none" stroke="#FBAF29" stroke-width="4" stroke-linecap="round" stroke-linejoin="round" stroke-miterlimit="10" x1="70.1" y1="127.3" x2="79.1" y2="124.8"/>
	
		<line fill="none" stroke="#FBAF29" stroke-width="4" stroke-linecap="round" stroke-linejoin="round" stroke-miterlimit="10" x1="65.9" y1="141.8" x2="78.6" y2="138.2"/>
	
		<line fill="none" stroke="#FBAF29" stroke-width="4" stroke-linecap="round" stroke-linejoin="round" stroke-miterlimit="10" x1="64" y1="157.5" x2="76.8" y2="153.9"/>
	
		<line fill="none" stroke="#FBAF29" stroke-width="4" stroke-linecap="round" stroke-linejoin="round" stroke-miterlimit="10" x1="64.8" y1="173.2" x2="77.5" y2="169.6"/>
	
		<line fill="none" stroke="#FBAF29" stroke-width="4" stroke-linecap="round" stroke-linejoin="round" stroke-miterlimit="10" x1="75.4" y1="183" x2="77.9" y2="182.3"/>
</g>
<g>
	<g>
		<g>
			<path fill="none" stroke="#FBAF29" stroke-width="4" stroke-linecap="round" stroke-linejoin="round" stroke-miterlimit="10" d="
				M91.1,87.6c-25.2-2.2-43,7.1-49.8,33.5"/>
			<path fill="none" stroke="#FBAF29" stroke-width="4" stroke-linecap="round" stroke-linejoin="round" stroke-miterlimit="10" d="
				M72.8,88.3c0,0-16.8,4.7-19.2,25.6"/>
			<path fill="none" stroke="#FBAF29" stroke-width="4" stroke-linecap="round" stroke-linejoin="round" stroke-miterlimit="10" d="
				M83.6,87.3c0,0-13.8-0.8-17.9,19.6"/>
		</g>
		<g>
			<path fill="none" stroke="#FBAF29" stroke-width="4" stroke-linecap="round" stroke-linejoin="round" stroke-miterlimit="10" d="
				M37.9,72.3c14.4-6.4,27.2-4.9,38.6,2.6c0,0,0,0,0,0c2.7,1.8,5.3,3.9,7.8,6.3c2,1.9,3.9,3.9,5.7,6.2"/>
			<path fill="none" stroke="#FBAF29" stroke-width="4" stroke-linecap="round" stroke-linejoin="round" stroke-miterlimit="10" d="
				M76.5,74.9c0,0-15.2-8.5-31.7,4.6"/>
			<path fill="none" stroke="#FBAF29" stroke-width="4" stroke-linecap="round" stroke-linejoin="round" stroke-miterlimit="10" d="
				M84.8,81.8c0,0-9.2-10.3-26.5,1.2"/>
		</g>
		<g>
			<path fill="none" stroke="#FBAF29" stroke-width="4" stroke-linecap="round" stroke-linejoin="round" stroke-miterlimit="10" d="
				M61.1,42.7C76.2,47,85,56.3,88.9,69.3c0.9,3.1,1.6,6.4,2,9.9c0,0.1,0,0.1,0,0.2c0,0.2,0,0.4,0.1,0.6c0.2,2.3,0.3,4.6,0.4,7
				c0,0.2,0,0.4,0,0.5"/>
			<path fill="none" stroke="#FBAF29" stroke-width="4" stroke-linecap="round" stroke-linejoin="round" stroke-miterlimit="10" d="
				M88.9,69.4c0,0-6.2-16.3-27.3-16.9"/>
			<path fill="none" stroke="#FBAF29" stroke-width="4" stroke-linecap="round" stroke-linejoin="round" stroke-miterlimit="10" d="
				M90.9,80c0,0-0.4-13.8-21.1-16.1"/>
		</g>
	</g>
	<g>
		<g>
			<path fill="none" stroke="#FBAF29" stroke-width="4" stroke-linecap="round" stroke-linejoin="round" stroke-miterlimit="10" d="
				M92.3,87.2c21.2,13.8,29.5,32.1,18.6,57.1"/>
			<path fill="none" stroke="#FBAF29" stroke-width="4" stroke-linecap="round" stroke-linejoin="round" stroke-miterlimit="10" d="
				M106.2,99.1c0,0,10.3,14.1-0.7,32"/>
			<path fill="none" stroke="#FBAF29" stroke-width="4" stroke-linecap="round" stroke-linejoin="round" stroke-miterlimit="10" d="
				M98.4,91.6c0,0,11.4,7.9,2,26.5"/>
		</g>
		<g>
			<path fill="none" stroke="#FBAF29" stroke-width="4" stroke-linecap="round" stroke-linejoin="round" stroke-miterlimit="10" d="
				M142.7,106.3c-7.4-12.8-18-19-31.1-20c-3.2-0.3-6.5-0.2-10,0.2c0,0,0,0,0,0c-0.3,0-0.5,0-0.8,0.1c-2.4,0.3-4.9,0.7-7.5,1.2"/>
			<path fill="none" stroke="#FBAF29" stroke-width="4" stroke-linecap="round" stroke-linejoin="round" stroke-miterlimit="10" d="
				M133.8,109.5c-0.2-0.9-0.4-1.8-0.7-2.6c-0.6-2.1-1.4-4-2.3-5.6c-0.7-1.3-1.4-2.5-2.1-3.5c-6.9-9.9-17-11.4-17-11.4"/>
			<path fill="none" stroke="#FBAF29" stroke-width="4" stroke-linecap="round" stroke-linejoin="round" stroke-miterlimit="10" d="
				M120.9,103.8c-0.4-1.1-0.7-2.1-1.1-3c-0.9-2.2-1.9-4.1-3-5.7c-5.6-8.4-12.8-8.8-15.2-8.7c0,0,0,0,0,0c-0.5,0-0.8,0.1-0.8,0.1"/>
		</g>
		<g>
			<path fill="none" stroke="#FBAF29" stroke-width="4" stroke-linecap="round" stroke-linejoin="round" stroke-miterlimit="10" d="
				M92.1,87.1c15.6-19.8,34.6-26.5,58.5-13.4"/>
			
				<circle fill="none" stroke="#FBAF29" stroke-width="5" stroke-linecap="round" stroke-linejoin="round" stroke-miterlimit="10" cx="178" cy="77.5" r="12.7"/>
			<path fill="none" stroke="#FBAF29" stroke-width="4" stroke-linecap="round" stroke-linejoin="round" stroke-miterlimit="10" d="
				M105.2,74.3c0,0,14.9-9,31.8,3.5"/>
			<path fill="none" stroke="#FBAF29" stroke-width="4" stroke-linecap="round" stroke-linejoin="round" stroke-miterlimit="10" d="
				M97.1,81.4c0,0,8.9-10.6,26.6,0.4"/>
		</g>
	</g>
</g>
<g>
	<path fill="none" stroke="#FBAF29" stroke-width="4" stroke-linecap="round" stroke-linejoin="round" stroke-miterlimit="10" d="
		M106.5,191.9c4-28.9,17.6-57.9,43.1-73.6c0.3-0.2,0.7,0.2,0.5,0.5c-18.6,22.4-26.6,48-30,64.7c-0.6,2.8-1,5.6-1.4,8.4"/>
	
		<line fill="none" stroke="#FBAF29" stroke-width="4" stroke-linecap="round" stroke-linejoin="round" stroke-miterlimit="10" x1="130.9" y1="134.2" x2="138.7" y2="134.1"/>
	
		<line fill="none" stroke="#FBAF29" stroke-width="4" stroke-linecap="round" stroke-linejoin="round" stroke-miterlimit="10" x1="123.3" y1="146.4" x2="131.1" y2="146.2"/>
	
		<line fill="none" stroke="#FBAF29" stroke-width="4" stroke-linecap="round" stroke-linejoin="round" stroke-miterlimit="10" x1="117" y1="157" x2="127.9" y2="156.8"/>
	
		<line fill="none" stroke="#FBAF29" stroke-width="4" stroke-linecap="round" stroke-linejoin="round" stroke-miterlimit="10" x1="112.2" y1="169.1" x2="123.1" y2="169"/>
	
		<line fill="none" stroke="#FBAF29" stroke-width="4" stroke-linecap="round" stroke-linejoin="round" stroke-miterlimit="10" x1="109.4" y1="181.8" x2="120.4" y2="181.7"/>
	
		<line fill="none" stroke="#FBAF29" stroke-width="4" stroke-linecap="round" stroke-linejoin="round" stroke-miterlimit="10" x1="107.1" y1="192" x2="118" y2="191.9"/>
</g>
<g>
	<g>
		<g>
			<path fill="none" stroke="#FBAF29" stroke-width="4" stroke-linecap="round" stroke-linejoin="round" stroke-miterlimit="10" d="
				M148.6,119.1c-5.9-8.2-24.1-10.6-33.3-5.4"/>
			<path fill="none" stroke="#FBAF29" stroke-width="4" stroke-linecap="round" stroke-linejoin="round" stroke-miterlimit="10" d="
				M141.6,113.9c0,0-10.8-3.5-18.4,11.9"/>
		</g>
		<g>
			<path fill="none" stroke="#FBAF29" stroke-width="4" stroke-linecap="round" stroke-linejoin="round" stroke-miterlimit="10" d="
				M137.1,77.8c10.9,8.3,13.2,15,13.5,26.2c0.1,2.7-0.1,5.4-0.5,8.3c0,0,0,0.1,0,0.1c0,0.2-0.1,0.3-0.1,0.5
				c-0.3,1.9-0.7,3.8-1.2,5.7c0,0.1-0.1,0.3-0.1,0.4"/>
			<path fill="none" stroke="#FBAF29" stroke-width="4" stroke-linecap="round" stroke-linejoin="round" stroke-miterlimit="10" d="
				M150.6,104.1c0,0-1.5-14.3-18.2-19.2"/>
		</g>
	</g>
	<g>
		<g>
			<path fill="none" stroke="#FBAF29" stroke-width="4" stroke-linecap="round" stroke-linejoin="round" stroke-miterlimit="10" d="
				M149.5,119c14,15.5,16.7,31.8,2.8,49.5"/>
			<path fill="none" stroke="#FBAF29" stroke-width="4" stroke-linecap="round" stroke-linejoin="round" stroke-miterlimit="10" d="
				M158.2,131.5c0,0,5.2,13.4-7.3,25.4"/>
			<path fill="none" stroke="#FBAF29" stroke-width="4" stroke-linecap="round" stroke-linejoin="round" stroke-miterlimit="10" d="
				M153.5,123.9c0,0,7.4,8.7-4,21.5"/>
		</g>
		<g>
			<path fill="none" stroke="#FBAF29" stroke-width="4" stroke-linecap="round" stroke-linejoin="round" stroke-miterlimit="10" d="
				M150.2,119.7c18.2,0.9,30.8,8.4,35.4,25.2"/>
			<path fill="none" stroke="#FBAF29" stroke-width="4" stroke-linecap="round" stroke-linejoin="round" stroke-miterlimit="10" d="
				M165.1,122.4c0,0,13.2,5.8,12.8,23.1"/>
			<path fill="none" stroke="#FBAF29" stroke-width="4" stroke-linecap="round" stroke-linejoin="round" stroke-miterlimit="10" d="
				M156.5,120.3c0,0,11.4,0.9,12.4,18.1"/>
		</g>
		<g>
			<path fill="none" stroke="#FBAF29" stroke-width="4" stroke-linecap="round" stroke-linejoin="round" stroke-miterlimit="10" d="
				M149.4,119c16.6-12.5,33.2-13.8,49.5,1.7"/>
			<path fill="none" stroke="#FBAF29" stroke-width="4" stroke-linecap="round" stroke-linejoin="round" stroke-miterlimit="10" d="
				M162.6,111.5c0,0,13.8-4,24.6,9.6"/>
			<path fill="none" stroke="#FBAF29" stroke-width="4" stroke-linecap="round" stroke-linejoin="round" stroke-miterlimit="10" d="
				M154.6,115.4c0,0,9.3-6.6,21.1,5.9"/>
		</g>
	</g>
</g>
<path fill="none" stroke="#FBAF29" stroke-width="5" stroke-linecap="round" stroke-linejoin="round" stroke-miterlimit="10" d="
	M27.6,198.2c1.6-1.2,3.3-2.4,5-3.4c11.2-7.1,24.5-11.2,38.8-11.2c14.8,0,28.6,4.4,40.1,12c4.6,3.1,8.9,6.7,12.7,10.7
	c3.4,3.6,6.4,7.4,9,11.6c1.8,2.9,3.4,5.9,4.8,9"/>
<path fill="none" stroke="#FBAF29" stroke-width="5" stroke-linecap="round" stroke-linejoin="round" stroke-miterlimit="10" d="
	M27.6,219.7c1.6-1.8,3.2-3.6,5-5.2c3.9-3.6,8.3-6.7,13.1-9.1c7.7-3.9,16.5-6.1,25.7-6.1c9.9,0,19.3,2.5,27.4,7
	c4.7,2.6,8.9,5.8,12.7,9.5c3.4,3.3,6.4,7.1,8.8,11.2"/>
<path fill="none" stroke="#FBAF29" stroke-width="5" stroke-linecap="round" stroke-linejoin="round" stroke-miterlimit="10" d="
	M102.2,226.9c-3.5-3.7-7.7-6.8-12.4-9c-5.6-2.7-11.8-4.2-18.4-4.2c-5.8,0-11.4,1.2-16.4,3.3c-4.9,2.1-9.3,5-13.1,8.6
	c-0.4,0.4-0.9,0.9-1.3,1.3"/>
<g>
	<path fill="none" stroke="#FBAF29" stroke-width="5" stroke-linecap="round" stroke-linejoin="round" stroke-miterlimit="10" d="
		M212.4,185c-8.3,1.7-16.1,4.8-23.2,9.1c-4.9,3-9.4,6.5-13.5,10.6c-3.6,3.5-6.8,7.4-9.5,11.6c-2.2,3.4-4.2,6.9-5.8,10.6"/>
	<path fill="none" stroke="#FBAF29" stroke-width="5" stroke-linecap="round" stroke-linejoin="round" stroke-miterlimit="10" d="
		M178,226.9c0.5-0.9,1.1-1.7,1.7-2.6c2.7-4,5.9-7.7,9.5-10.8c4-3.6,8.6-6.5,13.5-8.9c3.1-1.4,6.3-2.6,9.7-3.5"/>
	<path fill="none" stroke="#FBAF29" stroke-width="5" stroke-linecap="round" stroke-linejoin="round" stroke-miterlimit="10" d="
		M196.1,226.9c0.9-0.9,1.8-1.8,2.7-2.6c3.9-3.5,8.5-6.2,13.5-8c0,0,0.1,0,0.1,0"/>
</g>
<g>
	<path fill="none" stroke="#FBAF29" stroke-width="5" stroke-linecap="round" stroke-linejoin="round" stroke-miterlimit="10" d="
		M32.6,194.7c-1.6-1-3.3-2-5-2.9"/>
</g>
<g>
	<path fill="none" stroke="#FBAF29" stroke-width="5" stroke-linecap="round" stroke-linejoin="round" stroke-miterlimit="10" d="
		M111.5,195.6c11.5-7.6,25.3-12,40.1-12c13.8,0,26.7,3.8,37.7,10.5"/>
	<path fill="none" stroke="#FBAF29" stroke-width="5" stroke-linecap="round" stroke-linejoin="round" stroke-miterlimit="10" d="
		M124.2,206.2c8.1-4.5,17.5-7,27.4-7c8.6,0,16.8,1.9,24.2,5.4"/>
	<path fill="none" stroke="#FBAF29" stroke-width="5" stroke-linecap="round" stroke-linejoin="round" stroke-miterlimit="10" d="
		M133.1,217.9c5.6-2.7,11.8-4.2,18.4-4.2c5.1,0,10.1,0.9,14.6,2.6"/>
</g>
<path fill="none" stroke="#FBAF29" stroke-width="5" stroke-linecap="round" stroke-linejoin="round" stroke-miterlimit="10" d="
	M212.4,227.2H27.6V110.7c0-51,41.4-92.4,92.4-92.4h0c51,0,92.4,41.4,92.4,92.4V227.2z"/>
<g>
	<g>
		<path fill="#FBAF29" d="M25,237.8h20.8l0.4,8.3h-0.7c-1.1-2.8-2.3-4.7-3.5-5.8c-1.2-1-3-1.6-5.4-1.6h-1.4v12.9h1.4
			c1.3,0,2.3-0.5,3.2-1.5c0.9-1,1.5-2.3,1.8-4h0.6v12.4h-0.7c-0.5-2.1-1.1-3.6-1.9-4.5c-0.8-0.9-1.9-1.3-3.3-1.3h-1v13.4h1.5
			c2.5,0,4.5-0.8,6.3-2.3c1.7-1.5,2.9-3.5,3.5-5.9h0.8L47,267H25v-0.9h2.4v-27.4H25V237.8z"/>
		<path fill="#FBAF29" d="M54,237.8h14.4v0.9h-4.2v27.4h1.4c2.3,0,4.1-0.7,5.4-2.2c1.3-1.4,2.7-3.7,4.1-6.7h0.8l-0.8,9.8H54v-0.9
			h2.4v-27.4H54V237.8z"/>
		<path fill="#FBAF29" d="M93.7,251.5l5.7-13.1h-4v-0.7h7.9v0.7h-2.6l-6,14v13.8H97v0.8H84.3v-0.8h2.4v-13l-6.8-14.7H78v-0.7h12.8
			v0.7h-2.6L93.7,251.5z"/>
		<path fill="#FBAF29" d="M117.8,266.6c1.3,0,2.5-0.4,3.5-1.1c1-0.8,1.5-1.9,1.5-3.4s-0.6-2.7-1.7-3.5c-1.1-0.8-2.7-1.5-4.7-2.1
			c-2-0.6-3.5-1.1-4.4-1.6c-0.9-0.4-1.8-1-2.6-1.8c-1.7-1.4-2.5-3.7-2.5-6.7c0-2.5,0.8-4.6,2.5-6.4c1.7-1.8,4-2.7,6.9-2.7
			c1.4,0,2.9,0.2,4.4,0.6c1.5,0.4,2.5,0.6,2.9,0.6s0.7-0.3,1-0.8h0.4l0.3,8.4h-0.6c-1.3-2.4-2.6-4.4-4-5.8c-1.4-1.5-2.9-2.2-4.6-2.2
			s-2.9,0.4-3.8,1.2c-0.9,0.8-1.4,1.9-1.4,3.2s0.5,2.3,1.6,3c1.1,0.7,2.4,1.3,4,1.7c1.6,0.4,2.6,0.8,3.1,0.9s1.1,0.4,1.8,0.7
			c0.7,0.3,1.3,0.6,1.8,0.9c0.5,0.3,1,0.7,1.5,1.2c0.5,0.5,0.9,1,1.2,1.6c0.7,1.3,1.1,2.9,1.1,4.8c0,3-0.9,5.4-2.7,7.2
			c-1.8,1.8-4.2,2.7-7.1,2.7c-1.5,0-3.3-0.2-5.2-0.6c-2-0.4-3-0.6-3.3-0.6c-0.4,0-0.7,0.4-1.1,1.3h-0.6l-0.4-9.9h0.7
			c1.2,2.4,2.7,4.5,4.5,6.4C113.9,265.7,115.8,266.6,117.8,266.6z"/>
		<path fill="#FBAF29" d="M133.8,237.8H146v0.8h-2.2v27.7h2.2v0.8h-12.2v-0.8h2.2v-27.7h-2.2V237.8z"/>
		<path fill="#FBAF29" d="M163.2,264c0.8,1.4,2.4,2,4.5,2c2.2,0,3.9-0.7,5-2.1c1.2-1.4,1.8-3.6,1.8-6.5v-18.9h-2.6v-0.8h5.8v0.8
			h-2.2v18.6c0,3.5-0.7,6-2.2,7.7c-1.5,1.7-4.1,2.5-7.8,2.5s-6.6-0.8-8.5-2.4c-2-1.6-2.9-4.4-2.9-8.3v-18.1h-2.2v-0.8h12.6v0.8h-2.6
			v19.6C161.9,260.7,162.3,262.7,163.2,264z"/>
		<path fill="#FBAF29" d="M204.3,237.8H215v0.8h-2.2v27.7h2.2v0.8h-12.2v-0.8h2.2v-26.1h-0.2l-6,26.9h-5l-7-27h-0.2v26.2h2.2v0.8
			h-5.4v-0.8h2.2v-27.7h-2.2v-0.8h10.8l5.3,21.5L204.3,237.8z"/>
	</g>
	<g>
		<path fill="#FBAF29" d="M27.3,279.9h2.9v1.7h-5.1v-9.1h2.2V279.9z"/>
		<path fill="#FBAF29" d="M37.6,272.6v5.4c0,0.5,0.1,1,0.4,1.3c0.3,0.3,0.7,0.4,1.2,0.4c0.5,0,0.9-0.1,1.2-0.4
			c0.3-0.3,0.4-0.7,0.4-1.3v-5.4H43v5.4c0,0.8-0.2,1.5-0.5,2.1c-0.3,0.6-0.8,1-1.4,1.3c-0.6,0.3-1.2,0.4-1.9,0.4
			c-0.7,0-1.4-0.1-1.9-0.4c-0.6-0.3-1-0.7-1.3-1.3s-0.5-1.3-0.5-2.1v-5.4H37.6z"/>
		<path fill="#FBAF29" d="M54.2,281.6l-1.8-2.8l-1.6,2.8h-2.5l2.9-4.6l-3-4.5h2.6l1.8,2.7l1.6-2.7h2.5l-2.9,4.6l3,4.5H54.2z"/>
		<path fill="#FBAF29" d="M64.2,272.6v5.4c0,0.5,0.1,1,0.4,1.3c0.3,0.3,0.7,0.4,1.2,0.4c0.5,0,0.9-0.1,1.2-0.4
			c0.3-0.3,0.4-0.7,0.4-1.3v-5.4h2.2v5.4c0,0.8-0.2,1.5-0.5,2.1c-0.3,0.6-0.8,1-1.4,1.3c-0.6,0.3-1.2,0.4-1.9,0.4
			c-0.7,0-1.4-0.1-1.9-0.4c-0.6-0.3-1-0.7-1.3-1.3c-0.3-0.6-0.5-1.3-0.5-2.1v-5.4H64.2z"/>
		<path fill="#FBAF29" d="M79.9,281.6l-1.9-3.4h-0.5v3.4h-2.2v-9.1H79c0.7,0,1.3,0.1,1.8,0.4c0.5,0.3,0.9,0.6,1.1,1
			c0.3,0.4,0.4,0.9,0.4,1.5c0,0.6-0.2,1.1-0.5,1.6c-0.3,0.5-0.8,0.8-1.5,1l2.1,3.6H79.9z M77.5,276.6h1.4c0.4,0,0.7-0.1,0.9-0.3
			c0.2-0.2,0.3-0.5,0.3-0.8c0-0.3-0.1-0.6-0.3-0.8c-0.2-0.2-0.5-0.3-0.9-0.3h-1.4V276.6z"/>
		<path fill="#FBAF29" d="M95.6,272.6l-3.1,6.1v3h-2.2v-3l-3.1-6.1h2.5l1.8,3.8l1.7-3.8H95.6z"/>
		<path fill="#FBAF29" d="M107.8,274.7c0.4-0.7,0.9-1.3,1.6-1.6c0.7-0.4,1.5-0.6,2.4-0.6c1.1,0,2,0.3,2.8,0.9
			c0.8,0.6,1.3,1.3,1.5,2.3h-2.4c-0.2-0.4-0.4-0.7-0.8-0.9c-0.3-0.2-0.7-0.3-1.1-0.3c-0.7,0-1.2,0.2-1.7,0.7
			c-0.4,0.5-0.6,1.1-0.6,1.9c0,0.8,0.2,1.4,0.6,1.9c0.4,0.5,1,0.7,1.7,0.7c0.4,0,0.8-0.1,1.1-0.3c0.3-0.2,0.6-0.5,0.8-0.9h2.4
			c-0.3,1-0.8,1.8-1.5,2.3c-0.8,0.6-1.7,0.8-2.8,0.8c-0.9,0-1.7-0.2-2.4-0.6s-1.2-0.9-1.6-1.6c-0.4-0.7-0.6-1.5-0.6-2.4
			S107.4,275.4,107.8,274.7z"/>
		<path fill="#FBAF29" d="M123.5,281.1c-0.7-0.4-1.3-1-1.7-1.7c-0.4-0.7-0.6-1.5-0.6-2.4s0.2-1.7,0.6-2.4c0.4-0.7,1-1.3,1.7-1.7
			c0.7-0.4,1.5-0.6,2.3-0.6s1.6,0.2,2.3,0.6c0.7,0.4,1.3,0.9,1.7,1.7c0.4,0.7,0.6,1.5,0.6,2.4s-0.2,1.7-0.6,2.4
			c-0.4,0.7-1,1.3-1.7,1.7c-0.7,0.4-1.5,0.6-2.3,0.6S124.2,281.5,123.5,281.1z M127.6,279c0.4-0.5,0.7-1.1,0.7-1.9
			c0-0.8-0.2-1.4-0.7-1.9c-0.4-0.5-1-0.7-1.7-0.7c-0.7,0-1.3,0.2-1.8,0.7c-0.4,0.5-0.7,1.1-0.7,1.9c0,0.8,0.2,1.4,0.7,1.9
			c0.4,0.5,1,0.7,1.8,0.7C126.6,279.7,127.1,279.5,127.6,279z"/>
		<path fill="#FBAF29" d="M144,281.6h-2.2l-3.7-5.6v5.6h-2.2v-9.1h2.2l3.7,5.6v-5.6h2.2V281.6z"/>
		<path fill="#FBAF29" d="M149.9,274.7c0.4-0.7,0.9-1.3,1.6-1.6c0.7-0.4,1.5-0.6,2.4-0.6c1.1,0,2,0.3,2.8,0.9s1.3,1.3,1.5,2.3h-2.4
			c-0.2-0.4-0.4-0.7-0.8-0.9c-0.3-0.2-0.7-0.3-1.1-0.3c-0.7,0-1.2,0.2-1.7,0.7c-0.4,0.5-0.6,1.1-0.6,1.9c0,0.8,0.2,1.4,0.6,1.9
			c0.4,0.5,1,0.7,1.7,0.7c0.4,0,0.8-0.1,1.1-0.3c0.3-0.2,0.6-0.5,0.8-0.9h2.4c-0.3,1-0.8,1.8-1.5,2.3c-0.8,0.6-1.7,0.8-2.8,0.8
			c-0.9,0-1.7-0.2-2.4-0.6s-1.2-0.9-1.6-1.6c-0.4-0.7-0.6-1.5-0.6-2.4S149.5,275.4,149.9,274.7z"/>
		<path fill="#FBAF29" d="M165.9,272.6v9.1h-2.2v-9.1H165.9z"/>
		<path fill="#FBAF29" d="M173.9,274.3v1.8h3v1.7h-3v2h3.3v1.8h-5.6v-9.1h5.6v1.8H173.9z"/>
		<path fill="#FBAF29" d="M187.4,281.6l-1.9-3.4H185v3.4h-2.2v-9.1h3.7c0.7,0,1.3,0.1,1.8,0.4c0.5,0.3,0.9,0.6,1.1,1
			c0.3,0.4,0.4,0.9,0.4,1.5c0,0.6-0.2,1.1-0.5,1.6c-0.3,0.5-0.8,0.8-1.5,1l2.1,3.6H187.4z M185,276.6h1.4c0.4,0,0.7-0.1,0.9-0.3
			c0.2-0.2,0.3-0.5,0.3-0.8c0-0.3-0.1-0.6-0.3-0.8c-0.2-0.2-0.5-0.3-0.9-0.3H185V276.6z"/>
		<path fill="#FBAF29" d="M201.4,275.4c-0.2-0.3-0.4-0.5-0.7-0.7c-0.3-0.2-0.7-0.2-1.1-0.2c-0.7,0-1.3,0.2-1.7,0.7
			c-0.4,0.5-0.6,1.1-0.6,1.9c0,0.8,0.2,1.5,0.7,2c0.5,0.5,1.1,0.7,1.9,0.7c0.5,0,1-0.1,1.4-0.4c0.4-0.3,0.6-0.7,0.8-1.2h-2.8v-1.6
			h4.8v2.1c-0.2,0.6-0.4,1.1-0.8,1.5c-0.4,0.5-0.9,0.9-1.5,1.2s-1.3,0.4-2,0.4c-0.9,0-1.7-0.2-2.4-0.6c-0.7-0.4-1.3-0.9-1.6-1.6
			c-0.4-0.7-0.6-1.5-0.6-2.4s0.2-1.7,0.6-2.4c0.4-0.7,0.9-1.3,1.6-1.6c0.7-0.4,1.5-0.6,2.4-0.6c1.1,0,2,0.3,2.7,0.8
			c0.7,0.5,1.2,1.3,1.5,2.2H201.4z"/>
		<path fill="#FBAF29" d="M211.6,274.3v1.8h3v1.7h-3v2h3.3v1.8h-5.6v-9.1h5.6v1.8H211.6z"/>
	</g>
</g>
</svg>
