<?xml version="1.0" encoding="utf-8"?>
<!-- Generator: Adobe Illustrator 18.1.1, SVG Export Plug-In . SVG Version: 6.00 Build 0)  -->
<svg version="1.1" id="Layer_1" xmlns="http://www.w3.org/2000/svg" xmlns:xlink="http://www.w3.org/1999/xlink" x="0px" y="0px"
	 viewBox="0 0 700 700" enable-background="new 0 0 700 700" xml:space="preserve">
<g>
	<g>
		<path fill="#FAAF29" d="M266.4,636.4c-7.5-4.4-24.6-10.7-37.8-14c-17.7-4.4-22.1-7.4-16.4-11c11.4-7.2,33.1-5.8,48.8,3.1
			c7.5,4.3,21.1,7.8,30.1,7.8s22.5-3.5,30.1-7.8c7.5-4.3,22.3-7.8,32.8-7.8s25.3,3.5,32.8,7.8c7.5,4.3,21.1,7.8,30.1,7.8
			s22.5-3.5,30.1-7.8c16.2-9.2,51-10.9,48.2-2.3c-2.3,6.8-53.4,26.5-79.7,30.7c-11.4,1.8-22.6-0.3-31.2-6
			c-16.5-10.8-39.4-11-57.6-0.6C309,646.4,283.8,646.4,266.4,636.4 M178.1,599.7c-7.8-5.4-5.2-8.1,18.3-19
			c33.4-15.5,40.1-15.6,71.5-1.7c24.6,10.9,24.8,10.9,48.5,0.1c30.3-13.8,48.8-13.8,74.4-0.1c11.2,6,22.9,10.9,26,10.9
			s14.8-4.9,26-10.9c26.4-14.2,41.5-13.8,72.1,1.7l25,12.7l-13.5,7.2c-11.5,6.2-15.5,5.9-27.2-1.8c-16.7-10.9-39.5-11.3-57.9-0.8
			c-18.4,10.5-39.3,10.1-62.8-1.1c-18.4-8.8-21.1-8.7-48.9,0.8c-30,10.2-41.4,9.7-72.8-3.1c-14.7-6-20.9-6-35.5-0.1
			C193.7,605.8,187.8,606.4,178.1,599.7 M142.8,556.8c-25.8-11.9-41.6-27-28.1-27c4.5,0,19.1,4.8,32.4,10.7c25,11,42,10.1,61.8-3.4
			c6-4,17.1-7.3,24.8-7.3c7.7,0,18.8,3.3,24.8,7.3c19.8,13.5,36.7,14.4,61.8,3.4c30.3-13.5,35.3-13.3,69.7,0.9l27.9,11.6l26.2-11.6
			c32.3-14.3,33.7-14.3,66,0l26.2,11.6l23.8-11.6c30.4-14.8,42.4-15.4,34-1.8c-12.9,20.6-74.8,34.2-95,20.9
			c-17.1-11.2-37.1-11.2-58.6-0.1c-18.2,9.4-39.9,8.2-68.7-3.7c-14.9-6.2-20.7-6.2-35.5,0c-28.9,11.9-50.6,13.1-68.7,3.7
			c-21-10.8-37.5-11-57.6-0.4C189.5,570.4,170.6,569.6,142.8,556.8 M154.3,523c-6-3.6-21.8-7.8-35.1-9.4
			c-13.3-1.6-25.1-5.7-26.2-9.1c-3.9-11.9,24.8-13.2,52.2-2.4c27.3,10.8,40.7,10.1,66.4-3.3c17.8-9.2,26.6-9.1,45.8,0.9
			c22.1,11.5,40.8,11.6,70.1,0.4c24.9-9.6,26.3-9.5,58.7,1.7c33.1,11.4,33.2,11.4,60.2,0.8c27.6-10.9,40.5-11,59.9-0.6
			c15.3,8.1,41.3,7.3,64-2.2c21.9-9.1,52.3-5.7,48,5.4c-1.5,3.9-14.2,8.2-28.3,9.5c-14.1,1.3-33.6,5.8-43.4,9.9
			c-14.9,6.3-20.7,6.3-35.5,0.2c-30.3-12.4-47.6-13.2-69.7-3.3c-22.1,10-39.4,9.1-69.7-3.3c-14.8-6.1-20.7-6.1-35.5,0
			c-29.5,12.1-46.3,13.1-64.7,3.8c-21.5-10.7-46.9-10.9-65.1-0.5C189.6,531.1,169,531.6,154.3,523 M152.4,485.7
			c-28.8-12.9-38.3-13.3-54.2-2.1c-6.7,4.6-14.6,7-17.6,5.1c-11.4-7.1-4.7-20,14.5-28.1c18-7.5,22.3-7.5,42.6,0.3
			c24.9,9.5,60.8,11.5,65.7,3.6c6.6-10.6,35.3-12.1,54.6-3c20.5,9.7,43.3,8.8,82.8-3.3c19.1-5.9,24.9-5.5,40.5,2.2
			c23.1,11.5,49.2,11.5,73.4,0c17.7-8.4,20.6-8.4,42.8,0c29.7,11.4,46.4,11.4,73,0.3c26.7-11.2,62.4-2.8,62.4,14.4
			c0,11.4-18.4,15.3-24.6,5.2c-5-8.1-31.9-6.6-44.1,2.6c-13.7,10.3-56.8,10.3-70.4,0c-13.7-10.3-26.8-10.2-47.8,0.7
			c-21.7,11.2-49.5,11.2-65.5,0c-6.9-4.8-17-8.7-22.5-8.7c-5.5,0-17.6,3.9-26.9,8.7c-9.4,4.8-25,8.7-34.9,8.7
			c-9.9,0-23.6-3.9-30.5-8.7c-15.4-10.8-33.8-11.2-49.9-1.2C194.1,496,177.1,496.9,152.4,485.7 M188.5,398.1
			c-12.8-7.5-12.2-11.8,6.6-50.9c13.5-27.7,34.7-106.1,30.3-111.6c-0.7-0.9-29,6-62.9,15.2c-33.9,9.2-62.7,15.7-64,14.4
			c-3.9-3.9,9.6-21.7,27.6-36.3c13.7-11.2,22.7-13.6,48.5-13.5c17.4,0.1,31.7-0.2,31.7-0.7c0-0.4-22.2-10.1-49.4-21.5
			c-27.2-11.4-48.5-23.5-47.5-26.7c2.9-8.7,46.4-10.6,65-2.9c8.7,3.7,23,15.3,31.8,25.9l15.9,19.2l-0.5-33.8
			c-0.4-29.9,1.7-37,18.1-61c18.6-27.3,32.2-38.2,32.2-25.8c0,3.7-6.1,26.4-13.6,50.4c-17,54.7-17,59.3-0.3,34.8
			c14.4-21.2,46.7-37.5,74.2-37.5c22,0,20.5,7.2-5.5,25.6c-11.9,8.5-36.9,26.1-55.4,39.2l-33.7,23.8l3.5-15.6l3.6-15.6l-7.8,13.7
			c-4.3,7.5-9.3,12.9-11.1,11.9c-1.9-0.9-6.3-0.5-10.1,1c-4,1.6-2.1,4.2,4.8,6.3c10.8,3.3,11.8,8.6,15.3,83
			c2.7,57.1,2,81.5-2.6,87.1C225.8,405.2,202.3,406.1,188.5,398.1 M481.1,400.4c-5-2.1-6.8-24.8-6.8-87.1c0-69.8,1.4-84.3,7.9-84.3
			c11.5,0,15.4-9.2,5.5-13c-5.5-2.1-7.3-0.9-5,3.5c1.9,3.7-0.4,2-5.2-3.8c-4.7-5.9-8.6-13-8.6-16c0-2.9-1.4-3.9-3.2-2.1
			c-1.7,1.7-0.3,8.6,3.3,15.2c4,7.5,4.3,11.3,0.8,10.1c-10.8-3.8-110.2-78.3-110.2-82.5c0-7.9,35.4-4.1,58.4,6.3
			c14.2,6.5,26.3,17,31.9,27.7c15.7,30.4,14.9,13.5-1.8-40.6c-8.9-28.8-14.3-52.4-12-52.4c7.1,0,39.1,34.7,44.3,48.2
			c2.7,6.9,4.9,27.1,4.9,44.9v32.2l20.9-22.4c17.9-19.2,24.7-22.7,48.9-25c32.6-3.1,50,1.3,40.9,10.4c-3.3,3.3-24,14.2-46,24.3
			c-38.4,17.7-39.3,18.4-20,18.5c28.3,0.2,42.3,6.7,66.5,31c27.4,27.5,19.6,28.7-51.1,7.7c-30.8-9.2-57.9-16.7-60-16.7
			c-4.7,0,2.4,47.7,11.2,75.7c3.4,11,12.2,30.2,19.4,42.8c7.2,12.6,13.1,26.6,13.1,31.2C528.9,398.9,500.9,408.3,481.1,400.4
			 M326.6,355.6c0-43,10.7-59.7,33.8-52.6c18.3,5.7,20.7,11.9,20.8,53.1l0.1,36.9h-27.3h-27.3V355.6 M350.7,79.4
			c-2.2-5.6-11.5-13.5-20.9-17.6c-13.5-5.9-14.5-7.4-5.5-7.6c6.3-0.1,15.7,4.5,20.9,10.3c9.4,10.3,9.6,10.3,20,0
			c5.8-5.8,16-10.4,22.8-10.3c10.5,0.2,9.8,1.3-4.9,7.7c-9.5,4.1-19.7,12-22.9,17.6C354.9,89.2,354.5,89.2,350.7,79.4z"/>
	</g>
</g>
</svg>
