<?xml version="1.0" encoding="utf-8"?>
<!-- Generator: Adobe Illustrator 18.1.1, SVG Export Plug-In . SVG Version: 6.00 Build 0)  -->
<svg version="1.1" id="Layer_1" xmlns="http://www.w3.org/2000/svg" xmlns:xlink="http://www.w3.org/1999/xlink" x="0px" y="0px"
	 viewBox="0 0 710 160" enable-background="new 0 0 710 160" xml:space="preserve">
<g>
	<g>
		<path fill="#F9AF28" d="M193,21.1h56.4l1.1,22.4h-2c-3.1-7.6-6.3-12.9-9.6-15.7s-8.2-4.3-14.6-4.3h-3.8v35h3.7
			c3.4,0,6.3-1.3,8.6-4.1c2.3-2.6,4-6.3,4.8-10.8h1.6v33.5h-1.9c-1.3-5.6-3.1-9.7-5.3-12.1c-2.2-2.4-5.2-3.6-9-3.6h-2.6v36.3h4.1
			c6.6,0,12.3-2.1,16.9-6.3c4.6-4.2,7.8-9.4,9.6-15.9h2.2l-0.9,24.6H193v-2.5h6.4V23.5H193V21.1z"/>
		<path fill="#F9AF28" d="M271.5,21.1h39v2.5H299v74.2h3.9c6.2,0,11-2,14.7-6c3.6-4,7.4-10,11.1-18.1h2.3l-2.1,26.5h-57.4v-2.5h6.4
			V23.5h-6.4V21.1z"/>
		<path fill="#F9AF28" d="M379.1,58.3l15.4-35.4h-11v-1.8h21.4v1.8h-7.2l-16.4,37.8v37.5h6.6v2.2h-34.3v-2.2h6.6V62.8l-18.5-39.9
			h-5.1v-1.8h34.6v1.8h-7L379.1,58.3z"/>
		<path fill="#F9AF28" d="M444.5,99.1c3.6,0,6.8-1,9.6-3.1c2.7-2.1,4.2-5.1,4.2-9.2c0-4.1-1.5-7.3-4.5-9.4c-3-2.2-7.3-4.1-12.8-5.7
			c-5.5-1.6-9.6-3.1-12-4.3c-2.5-1.2-4.8-2.7-7.2-4.7c-4.5-4-6.7-10-6.7-18.3c0-6.7,2.3-12.5,6.9-17.3c4.6-4.7,10.9-7.3,18.8-7.3
			c3.9,0,7.8,0.5,12,1.8s6.7,1.8,7.7,1.8c1,0,1.9-0.8,2.7-2.3h1.2l0.8,22.9h-1.8C460,37.3,456.4,32,452.7,28
			c-3.7-4-7.9-5.9-12.3-5.9c-4.4,0-7.9,1.1-10.3,3.2c-2.4,2.2-3.7,5.1-3.7,8.6s1.4,6.4,4.4,8.2c3,2,6.5,3.5,10.8,4.7
			c4.3,1.2,7,2.1,8.3,2.5c1.3,0.4,3,1.1,5,1.9c2,0.8,3.6,1.6,4.8,2.5c1.2,0.9,2.6,2,4,3.3c1.4,1.3,2.5,2.7,3.3,4.4
			c2,3.6,3,7.9,3,12.9c0,8.1-2.4,14.7-7.4,19.7c-4.8,5-11.3,7.4-19.3,7.4c-4.1,0-8.8-0.5-14.2-1.6c-5.3-1.1-8.2-1.6-8.8-1.6
			c-1,0-2,1.1-3,3.4h-1.5l-1.1-27h1.9c3.2,6.6,7.3,12.3,12.2,17.2C433.8,96.5,439,99.1,444.5,99.1z"/>
		<path fill="#F9AF28" d="M487.9,21.1H521v2.2h-6v74.9h6v2.2h-33.1v-2.2h5.9v-75h-5.9V21.1z"/>
		<path fill="#F9AF28" d="M567.3,92.1c2.3,3.7,6.4,5.5,12.3,5.5s10.4-1.9,13.6-5.7c3.2-3.8,4.7-9.7,4.7-17.5V23.2h-7V21h15.8v2.2h-6
			v50.4c0,9.3-2,16.4-6,20.9c-4,4.6-11,6.9-21.1,6.9c-10.1,0-17.8-2.2-23.1-6.6c-5.3-4.4-7.9-11.9-7.9-22.5V23.2h-6V21H571v2.2h-7
			v53C563.9,83.1,565.1,88.4,567.3,92.1z"/>
		<path fill="#F9AF28" d="M678.8,21.1h28.9v2.2h-6v74.9h6v2.2h-33.1v-2.2h6V27.4h-0.3L664,100.3h-13.5L631.3,27h-0.4v71.1h6v2.2
			h-14.7v-2.2h6V23.2h-6V21h29.3l14.4,58.3L678.8,21.1z"/>
	</g>
	<g>
		<path fill="#F9AF28" d="M199.3,135.1h7.8v4.6h-13.9v-24.5h5.9v19.9H199.3z"/>
		<path fill="#F9AF28" d="M227.1,115.2V130c0,1.4,0.3,2.6,1.1,3.4s1.8,1.2,3.2,1.2s2.4-0.4,3.2-1.2c0.8-0.8,1.1-2,1.1-3.4v-14.7h5.9
			v14.6c0,2.2-0.4,4.1-1.4,5.6c-0.9,1.5-2.2,2.6-3.7,3.4c-1.5,0.8-3.3,1.2-5.3,1.2c-2,0-3.6-0.3-5.2-1.1c-1.5-0.8-2.7-1.9-3.6-3.4
			c-0.9-1.5-1.3-3.4-1.3-5.6v-14.7H227.1z"/>
		<path fill="#F9AF28" d="M272.2,139.9l-5.1-7.5l-4.4,7.5h-6.8l7.9-12.5l-8-12.1h6.9l5,7.5l4.3-7.5h6.8l-7.8,12.4l8.1,12.2H272.2z"
			/>
		<path fill="#F9AF28" d="M299.3,115.2V130c0,1.4,0.3,2.6,1.1,3.4c0.8,0.8,1.8,1.2,3.2,1.2c1.4,0,2.4-0.4,3.2-1.2
			c0.8-0.8,1.1-2,1.1-3.4v-14.7h5.9v14.6c0,2.2-0.4,4.1-1.4,5.6c-0.9,1.5-2.2,2.6-3.7,3.4s-3.3,1.2-5.3,1.2s-3.6-0.3-5.2-1.1
			c-1.5-0.8-2.7-1.9-3.6-3.4c-0.9-1.5-1.3-3.4-1.3-5.6v-14.7H299.3z"/>
		<path fill="#F9AF28" d="M341.8,139.9l-5.2-9.2h-1.4v9.2h-6v-24.6h10c2,0,3.6,0.3,5,1c1.3,0.7,2.4,1.6,3.1,2.7c0.7,1.2,1,2.5,1,4
			c0,1.6-0.4,3.1-1.4,4.4c-0.9,1.3-2.3,2.2-4.1,2.7l5.7,9.8L341.8,139.9L341.8,139.9z M335.2,126.4h3.7c1.1,0,1.9-0.2,2.4-0.8
			c0.5-0.5,0.8-1.3,0.8-2.3c0-0.9-0.2-1.6-0.8-2.2c-0.5-0.5-1.3-0.8-2.4-0.8h-3.7V126.4z"/>
		<path fill="#F9AF28" d="M384.4,115.2l-8.5,16.5v8.1h-6v-8.1l-8.5-16.5h6.8l4.7,10.3l4.7-10.3H384.4z"/>
		<path fill="#F9AF28" d="M417.3,120.9c1.1-1.9,2.5-3.4,4.4-4.4c1.9-1.1,4-1.5,6.4-1.5c3,0,5.4,0.8,7.5,2.3c2.1,1.5,3.5,3.6,4.2,6.3
			h-6.6c-0.4-1-1.2-1.8-2.1-2.3c-0.9-0.5-1.9-0.8-3.1-0.8c-1.9,0-3.3,0.7-4.5,2c-1.1,1.3-1.8,3-1.8,5.2c0,2.2,0.5,3.8,1.8,5.2
			c1.1,1.3,2.6,2,4.5,2c1.1,0,2.2-0.2,3.1-0.8c0.9-0.5,1.5-1.3,2.1-2.3h6.6c-0.7,2.6-2.1,4.7-4.2,6.3c-2.1,1.5-4.6,2.3-7.5,2.3
			c-2.4,0-4.5-0.5-6.4-1.5c-1.9-1.1-3.3-2.5-4.4-4.4c-1.1-1.9-1.5-4.1-1.5-6.5C415.7,125.5,416.2,122.9,417.3,120.9z"/>
		<path fill="#F9AF28" d="M459.8,138.4c-2-1.1-3.4-2.5-4.6-4.5c-1.1-2-1.6-4.1-1.6-6.5s0.5-4.6,1.6-6.5c1.1-1.9,2.6-3.4,4.6-4.5
			c2-1.1,4.1-1.6,6.4-1.6c2.3,0,4.4,0.5,6.4,1.6c2,1.1,3.4,2.5,4.5,4.5c1.1,1.9,1.6,4.1,1.6,6.5c0,2.4-0.5,4.6-1.6,6.5
			c-1.1,1.9-2.6,3.4-4.5,4.5c-1.9,1.1-4.1,1.6-6.4,1.6C463.9,140.1,461.8,139.6,459.8,138.4z M470.9,132.6c1.2-1.3,1.8-3.1,1.8-5.2
			c0-2.2-0.5-4-1.8-5.2c-1.2-1.2-2.7-2-4.7-2c-2,0-3.5,0.7-4.7,2s-1.8,3.1-1.8,5.2c0,2.2,0.5,4,1.8,5.2c1.2,1.3,2.7,2,4.7,2
			C468.2,134.6,469.7,133.9,470.9,132.6z"/>
		<path fill="#F9AF28" d="M515.3,139.9h-6l-10-15.2v15.2h-6.1v-24.6h6l10,15.3v-15.3h5.9v24.6H515.3z"/>
		<path fill="#F9AF28" d="M531.4,120.9c1.1-1.9,2.5-3.4,4.4-4.4c1.9-1.1,4-1.5,6.4-1.5c3,0,5.4,0.8,7.5,2.3c2.1,1.5,3.5,3.6,4.2,6.3
			h-6.6c-0.4-1-1.2-1.8-2.1-2.3c-0.9-0.5-1.9-0.8-3.1-0.8c-1.9,0-3.3,0.7-4.5,2c-1.2,1.3-1.8,3-1.8,5.2c0,2.2,0.5,3.8,1.8,5.2
			s2.6,2,4.5,2c1.1,0,2.2-0.2,3.1-0.8c0.9-0.5,1.5-1.3,2.1-2.3h6.6c-0.7,2.6-2.1,4.7-4.2,6.3c-2.1,1.5-4.6,2.3-7.5,2.3
			c-2.4,0-4.5-0.5-6.4-1.5c-1.9-1.1-3.3-2.5-4.4-4.4c-1.1-1.9-1.5-4.1-1.5-6.5C529.9,125.5,530.3,122.9,531.4,120.9z"/>
		<path fill="#F9AF28" d="M574.8,115.2v24.6h-6v-24.6H574.8z"/>
		<path fill="#F9AF28" d="M596.3,120.1v5h8v4.6h-8v5.4h9.1v4.8h-15.1v-24.6h15.1v4.8L596.3,120.1L596.3,120.1z"/>
		<path fill="#F9AF28" d="M633,139.9l-5.2-9.2h-1.4v9.2h-6v-24.6h10c2,0,3.6,0.3,5,1c1.3,0.7,2.4,1.6,3.1,2.7c0.7,1.2,1,2.5,1,4
			c0,1.6-0.4,3.1-1.4,4.4c-0.9,1.3-2.3,2.2-4.1,2.7l5.7,9.8L633,139.9L633,139.9z M626.5,126.4h3.7c1.1,0,1.9-0.2,2.4-0.8
			c0.5-0.5,0.8-1.3,0.8-2.3c0-0.9-0.2-1.6-0.8-2.2c-0.5-0.5-1.3-0.8-2.4-0.8h-3.7V126.4z"/>
		<path fill="#F9AF28" d="M670.9,123c-0.4-0.8-1.1-1.4-1.9-1.9c-0.9-0.4-1.8-0.7-3-0.7c-2,0-3.5,0.7-4.6,1.9c-1.2,1.3-1.8,3-1.8,5.1
			c0,2.3,0.7,4.1,1.9,5.3c1.2,1.3,2.9,1.9,5.1,1.9c1.4,0,2.7-0.3,3.7-1.1s1.8-1.9,2.2-3.2h-7.7v-4.4h13v5.6
			c-0.4,1.5-1.2,2.9-2.3,4.2c-1.1,1.3-2.4,2.3-4.1,3.1c-1.6,0.8-3.5,1.2-5.5,1.2c-2.4,0-4.6-0.5-6.5-1.5c-1.9-1.1-3.4-2.5-4.4-4.4
			c-1.1-1.9-1.6-4.1-1.6-6.5c0-2.4,0.5-4.6,1.6-6.5s2.5-3.4,4.4-4.4c1.9-1.1,4.1-1.5,6.5-1.5c3,0,5.4,0.7,7.5,2.1c2,1.4,3.4,3.4,4,6
			h-6.5L670.9,123L670.9,123z"/>
		<path fill="#F9AF28" d="M698.4,120.1v5h8v4.6h-8v5.4h9.1v4.8h-15.1v-24.6h15.1v4.8L698.4,120.1L698.4,120.1z"/>
	</g>
</g>
<g>
	<g>
		<path fill="#F9AF28" d="M55.5,157.4c-2-1.2-6.6-2.9-10.2-3.8c-4.8-1.2-6-2-4.4-3c3.1-1.9,8.9-1.6,13.1,0.8c2,1.2,5.7,2.1,8.1,2.1
			c2.4,0,6.1-0.9,8.1-2.1c2-1.2,6-2.1,8.8-2.1c2.8,0,6.8,0.9,8.8,2.1c2,1.2,5.7,2.1,8.1,2.1c2.4,0,6.1-0.9,8.1-2.1
			c4.4-2.5,13.7-2.9,13-0.6c-0.6,1.8-14.4,7.1-21.5,8.3c-3.1,0.5-6.1-0.1-8.4-1.6c-4.4-2.9-10.6-3-15.5-0.2
			C67,160.1,60.2,160.1,55.5,157.4 M31.8,147.5c-2.1-1.5-1.4-2.2,4.9-5.1c9-4.2,10.8-4.2,19.3-0.5c6.6,2.9,6.7,2.9,13.1,0
			c8.2-3.7,13.1-3.7,20,0c3,1.6,6.2,2.9,7,2.9s4-1.3,7-2.9c7.1-3.8,11.2-3.7,19.4,0.5l6.7,3.4l-3.6,1.9c-3.1,1.7-4.2,1.6-7.3-0.5
			c-4.5-2.9-10.6-3-15.6-0.2c-5,2.8-10.6,2.7-16.9-0.3c-5-2.4-5.7-2.3-13.2,0.2c-8.1,2.7-11.1,2.6-19.6-0.8c-4-1.6-5.6-1.6-9.6,0
			C36,149.2,34.4,149.4,31.8,147.5 M22.2,136c-6.9-3.2-11.2-7.3-7.6-7.3c1.2,0,5.1,1.3,8.7,2.9c6.7,3,11.3,2.7,16.6-0.9
			c1.6-1.1,4.6-2,6.7-2c2.1,0,5.1,0.9,6.7,2c5.3,3.6,9.9,3.9,16.6,0.9c8.2-3.6,9.5-3.6,18.8,0.2l7.5,3.1l7.1-3.1
			c8.7-3.8,9.1-3.8,17.8,0l7.1,3.1l6.4-3.1c8.2-4,11.4-4.1,9.2-0.5c-3.5,5.5-20.1,9.2-25.6,5.6c-4.6-3-10-3-15.8,0
			c-4.9,2.5-10.7,2.2-18.5-1c-4-1.7-5.6-1.7-9.6,0c-7.8,3.2-13.6,3.5-18.5,1c-5.7-2.9-10.1-3-15.5-0.1
			C34.8,139.7,29.7,139.4,22.2,136 M25.3,126.9c-1.6-1-5.9-2.1-9.4-2.5c-3.6-0.4-6.8-1.5-7.1-2.5c-1.1-3.2,6.7-3.6,14.1-0.6
			c7.3,2.9,11,2.7,17.9-0.9c4.8-2.5,7.2-2.5,12.3,0.2c6,3.1,11,3.1,18.9,0.1c6.7-2.6,7.1-2.6,15.8,0.5c8.9,3.1,8.9,3.1,16.2,0.2
			c7.4-2.9,10.9-3,16.1-0.2c4.1,2.2,11.1,2,17.2-0.6c5.9-2.4,14.1-1.5,12.9,1.5c-0.4,1-3.8,2.2-7.6,2.6c-3.8,0.3-9,1.6-11.7,2.7
			c-4,1.7-5.6,1.7-9.6,0.1c-8.2-3.3-12.8-3.6-18.8-0.9c-6,2.7-10.6,2.4-18.8-0.9c-4-1.6-5.6-1.6-9.6,0c-7.9,3.3-12.5,3.5-17.4,1
			c-5.8-2.9-12.6-2.9-17.5-0.1C34.8,129.1,29.3,129.2,25.3,126.9 M24.8,116.9c-7.8-3.5-10.3-3.6-14.6-0.6c-1.8,1.2-3.9,1.9-4.7,1.4
			c-3.1-1.9-1.3-5.4,3.9-7.6c4.8-2,6-2,11.5,0.1c6.7,2.6,16.4,3.1,17.7,1c1.8-2.9,9.5-3.3,14.7-0.8c5.5,2.6,11.7,2.4,22.3-0.9
			c5.1-1.6,6.7-1.5,10.9,0.6c6.2,3.1,13.2,3.1,19.8,0c4.8-2.3,5.5-2.3,11.5,0c8,3.1,12.5,3.1,19.7,0.1c7.2-3,16.8-0.8,16.8,3.9
			c0,3.1-5,4.1-6.6,1.4c-1.3-2.2-8.6-1.8-11.9,0.7c-3.7,2.8-15.3,2.8-19,0c-3.7-2.8-7.2-2.7-12.9,0.2c-5.8,3-13.3,3-17.6,0
			c-1.9-1.3-4.6-2.3-6.1-2.3c-1.5,0-4.7,1.1-7.2,2.3c-2.5,1.3-6.7,2.3-9.4,2.3s-6.4-1-8.2-2.3c-4.1-2.9-9.1-3-13.4-0.3
			C36.1,119.6,31.5,119.9,24.8,116.9 M34.6,93.3c-3.4-2-3.3-3.2,1.8-13.7c3.6-7.5,9.3-28.6,8.2-30c-0.2-0.2-7.8,1.6-16.9,4.1
			c-9.1,2.5-16.9,4.2-17.2,3.9c-1.1-1,2.6-5.8,7.4-9.8c3.7-3,6.1-3.7,13.1-3.6c4.7,0,8.5-0.1,8.5-0.2c0-0.1-6-2.7-13.3-5.8
			S13,31.8,13.3,30.9c0.8-2.3,12.5-2.9,17.5-0.8c2.3,1,6.2,4.1,8.6,7l4.3,5.2l-0.1-9.1c-0.1-8,0.5-10,4.9-16.4
			c5-7.4,8.7-10.3,8.7-6.9c0,1-1.6,7.1-3.7,13.6c-4.6,14.7-4.6,16-0.1,9.4c3.9-5.7,12.6-10.1,20-10.1c5.9,0,5.5,1.9-1.5,6.9
			c-3.2,2.3-9.9,7-14.9,10.6l-9.1,6.4l0.9-4.2l1-4.2l-2.1,3.7c-1.2,2-2.5,3.5-3,3.2c-0.5-0.2-1.7-0.1-2.7,0.3
			c-1.1,0.4-0.6,1.1,1.3,1.7c2.9,0.9,3.2,2.3,4.1,22.3c0.7,15.4,0.5,21.9-0.7,23.5C44.6,95.2,38.3,95.4,34.6,93.3 M113.3,93.9
			c-1.3-0.6-1.8-6.7-1.8-23.5c0-18.8,0.4-22.7,2.1-22.7c3.1,0,4.1-2.5,1.5-3.5c-1.5-0.6-2-0.2-1.3,0.9c0.5,1-0.1,0.5-1.4-1
			c-1.3-1.6-2.3-3.5-2.3-4.3c0-0.8-0.4-1-0.9-0.6c-0.5,0.5-0.1,2.3,0.9,4.1c1.1,2,1.2,3,0.2,2.7c-2.9-1-29.7-21.1-29.7-22.2
			c0-2.1,9.5-1.1,15.7,1.7c3.8,1.8,7.1,4.6,8.6,7.5c4.2,8.2,4,3.6-0.5-10.9C102,14.4,100.6,8,101.2,8c1.9,0,10.5,9.3,11.9,13
			c0.7,1.9,1.3,7.3,1.3,12.1v8.7l5.6-6c4.8-5.2,6.7-6.1,13.2-6.7c8.8-0.8,13.5,0.4,11,2.8c-0.9,0.9-6.5,3.8-12.4,6.5
			c-10.3,4.8-10.6,5-5.4,5c7.6,0.1,11.4,1.8,17.9,8.3c7.4,7.4,5.3,7.7-13.8,2.1c-8.3-2.5-15.6-4.5-16.2-4.5c-1.3,0,0.6,12.8,3,20.4
			c0.9,3,3.3,8.1,5.2,11.5c1.9,3.4,3.5,7.2,3.5,8.4C126.2,93.5,118.7,96,113.3,93.9 M71.7,81.8c0-11.6,2.9-16.1,9.1-14.2
			c4.9,1.5,5.6,3.2,5.6,14.3l0,9.9h-7.3h-7.3L71.7,81.8 M78.2,7.5c-0.6-1.5-3.1-3.6-5.6-4.7c-3.6-1.6-3.9-2-1.5-2
			c1.7,0,4.2,1.2,5.6,2.8c2.5,2.8,2.6,2.8,5.4,0c1.6-1.6,4.3-2.8,6.1-2.8c2.8,0.1,2.6,0.3-1.3,2.1c-2.6,1.1-5.3,3.2-6.2,4.7
			C79.4,10.1,79.2,10.1,78.2,7.5z"/>
	</g>
</g>
</svg>
